<svg width="35" height="41" viewBox="0 0 35 41" fill="none" xmlns="http://www.w3.org/2000/svg">
<path fill-rule="evenodd" clip-rule="evenodd" d="M23.6379 6.81543C25.096 5.12545 26.0789 2.77165 25.8099 0.429688C23.7087 0.509687 21.1665 1.77198 19.6598 3.45996C18.3068 4.95794 17.1258 7.35148 17.4433 9.64746C19.7872 9.82144 22.1797 8.50739 23.6379 6.81543ZM28.8941 21.6797C28.9527 27.7336 34.4354 29.7474 34.4961 29.7734C34.4516 29.9154 33.6204 32.6429 31.6081 35.4629C29.8669 37.8989 28.0609 40.3249 25.2153 40.3769C22.4204 40.4269 21.5204 38.7891 18.323 38.7891C15.1276 38.7891 14.1286 40.3247 11.4833 40.4267C8.73689 40.5247 6.64371 37.7912 4.89029 35.3633C1.30256 30.3973 -1.43778 21.3299 2.24298 15.21C4.07122 12.172 7.33738 10.2453 10.8847 10.1973C13.5805 10.1473 16.1267 11.9355 17.775 11.9355C19.4232 11.9355 22.5175 9.78556 25.7695 10.1016C27.1306 10.1556 30.9529 10.6274 33.406 14.0693C33.2078 14.1873 28.8455 16.6198 28.8941 21.6797Z" fill="white"/>
</svg>
