<svg width="91" height="91" viewBox="0 0 91 91" fill="none" xmlns="http://www.w3.org/2000/svg">
<g clip-path="url(#clip0_59_1668)">
<path d="M49.2611 49.1805C49.2611 51.9705 45.7923 51.8055 45.7923 51.8055H42.3236V46.7692H45.7923C49.3623 46.743 49.2611 49.1842 49.2611 49.1842M42.3236 39.0855H44.9636C47.7086 39.2355 47.6073 41.2755 47.6073 41.2755C47.6073 43.8142 44.5698 43.8555 44.5698 43.8555H42.3198L42.3236 39.0855ZM48.6198 44.8455C48.6198 44.8455 50.9936 43.833 50.9711 41.1517C50.9711 41.1517 51.3311 36.753 45.5036 36.2167H39.0386V54.6555H46.4523C46.4523 54.6555 52.6398 54.6705 52.6398 49.4505C52.6398 49.4505 52.7898 45.8992 48.6198 44.8455ZM31.8836 32.6055H59.1011V58.2555H31.8873L31.8836 32.6055ZM17.8698 49.1805C17.8698 51.9705 14.4011 51.8055 14.4011 51.8055H10.9323V46.7692H14.4011C17.9711 46.743 17.8698 49.1842 17.8698 49.1842M10.9323 39.0855H13.5761C16.3211 39.2355 16.2161 41.2755 16.2161 41.2755C16.2161 43.8142 13.1786 43.8555 13.1786 43.8555H10.9323V39.0855ZM17.2286 44.8455C17.2286 44.8455 19.6023 43.833 19.5798 41.1517C19.5798 41.1517 19.9436 36.753 14.1161 36.2167H7.65109V54.6555H15.0611C15.0611 54.6555 21.2523 54.6705 21.2523 49.4505C21.2523 49.4505 21.4023 45.8992 17.2286 44.8455ZM0.496094 32.6055H27.7173V58.2555H0.496094V32.6055ZM84.9461 37.5405V40.9455C84.9461 40.9455 81.6198 38.9017 77.9448 38.8605C77.9448 38.8605 71.0898 38.7255 70.7823 45.4305C70.7823 45.4305 70.5348 51.5992 77.8623 51.948C77.8623 51.948 80.9373 52.3192 85.1073 49.6605V53.1855C85.1073 53.1855 79.5123 56.5117 73.0323 53.9505C73.0323 53.9505 67.5798 51.963 67.3736 45.4305C67.3736 45.4305 67.1486 38.718 74.4161 36.4867C74.4161 36.4867 76.3548 35.7442 79.8423 36.0742C79.8423 36.0742 81.9273 36.2805 84.9423 37.5367M63.2748 58.2555H90.4961V32.6055H63.2748V58.2555Z" fill="white"/>
</g>
<defs>
<clipPath id="clip0_59_1668">
<rect width="90" height="90" fill="white" transform="translate(0.496094 0.429688)"/>
</clipPath>
</defs>
</svg>
