<svg width="57" height="43" viewBox="0 0 57 43" fill="none" xmlns="http://www.w3.org/2000/svg">
<path d="M18.101 10.9553C18.1234 10.9553 18.1495 10.9553 18.1757 10.9553C21.7717 10.9553 25.028 12.408 27.3917 14.7586C29.3839 16.6295 31.2118 18.575 33.1312 20.5224C33.4617 20.8417 33.667 21.2898 33.667 21.7864C33.667 22.031 33.6166 22.2662 33.5251 22.4772L33.5289 22.466C33.2768 23.1326 32.6681 23.6068 31.9418 23.661H31.9362C31.8671 23.6703 31.7887 23.6759 31.7084 23.6759C31.2155 23.6759 30.7712 23.4631 30.4631 23.1251L30.4612 23.1233C28.6315 21.2935 26.8054 19.4899 25.0018 17.6396C23.622 16.2131 21.8016 15.2217 19.7609 14.88L19.7048 14.8725C19.2045 14.7829 18.6294 14.7306 18.0431 14.7306C12.6285 14.7306 8.23897 19.1202 8.23897 24.5348C8.23897 29.1671 11.4523 33.0506 15.7727 34.0738L15.8399 34.0869C16.654 34.2493 17.5894 34.3408 18.5472 34.3408C18.8236 34.3408 19.098 34.3333 19.3706 34.3184L19.3333 34.3203C19.3538 34.3184 19.3762 34.3184 19.4005 34.3184C19.6712 34.3184 19.914 34.436 20.0801 34.6227C21.2079 35.7262 22.4009 36.8278 23.5735 37.9256C23.6426 37.9966 23.7359 38.0657 23.8069 38.1347C23.6668 38.1347 23.5735 38.1572 23.4801 38.1572H18.1141C11.6446 38.1553 6.22996 33.6406 4.84831 27.5912L4.83151 27.4997C4.61866 26.6017 4.49543 25.571 4.49543 24.5105C4.49543 18.4891 8.44622 13.39 13.8963 11.6648L13.9915 11.6387C15.2145 11.2373 16.6223 10.989 18.0842 10.9535H18.1029L18.101 10.9553ZM35.8459 4.74163C35.8908 4.74163 35.9449 4.74163 35.9972 4.74163C40.9637 4.74163 45.4148 6.95415 48.4153 10.4494L48.4339 10.4718C50.9695 13.3919 52.5136 17.2307 52.5136 21.4298C52.5136 22.2084 52.4613 22.9739 52.3586 23.7245L52.3679 23.6367C51.3877 30.6439 46.2009 36.2116 39.4775 37.7427L39.3654 37.7651C38.2713 38.0153 37.0147 38.159 35.7246 38.159C34.9012 38.159 34.0927 38.1011 33.3011 37.9872L33.3926 37.9984C30.7357 37.6885 28.3514 36.727 26.3424 35.2762L26.3872 35.3061C25.8047 34.8879 25.2931 34.4491 24.8207 33.9711L24.8188 33.9692C21.9584 31.1574 19.126 28.3231 16.2656 25.5113C15.8866 25.1789 15.6495 24.6935 15.6495 24.152C15.6495 23.8533 15.7223 23.5695 15.8511 23.3212L15.8455 23.3305C16.1555 22.6639 16.8202 22.2102 17.5894 22.2102C17.6846 22.2102 17.778 22.2177 17.8695 22.2308L17.8583 22.2289C18.3493 22.3073 18.7713 22.5538 19.0738 22.9067L19.0756 22.9104C21.6541 25.5094 24.2083 28.0636 26.7849 30.6663C28.6595 32.5783 31.152 33.8778 33.9396 34.2437L34.0012 34.2512C34.6062 34.3557 35.3045 34.4155 36.0158 34.4155C39.7967 34.4155 43.1837 32.7314 45.4671 30.0726L45.4802 30.0558C47.0635 28.2802 48.167 26.0434 48.5646 23.5714L48.574 23.4985C48.7009 22.8357 48.7738 22.0721 48.7738 21.2916C48.7738 18.3416 47.7338 15.6362 46.0011 13.5189L46.0179 13.5413C43.6336 10.4848 39.948 8.53745 35.8086 8.53745C33.2133 8.53745 30.7954 9.30296 28.7715 10.6211L28.8219 10.5913C28.7715 10.6211 28.7099 10.6379 28.6445 10.6379C28.5978 10.6379 28.5549 10.6286 28.5138 10.6137C27.5635 9.9023 26.4899 9.23948 25.3584 8.67561L25.2352 8.6196C25.2165 8.59906 25.2016 8.57666 25.1885 8.55052V8.54865C26.0418 7.83355 27.0033 7.195 28.0303 6.66848L28.118 6.6274C29.8992 5.64157 31.996 4.98622 34.2234 4.80138L34.2794 4.79764C34.7997 4.75781 35.3207 4.73914 35.8422 4.74163H35.8459ZM34.9852 0.790843C34.4456 0.837521 33.8836 0.884199 33.3459 0.953282C30.8925 1.23335 28.6576 1.92044 26.6262 2.95108L26.7382 2.8988C24.5201 3.99852 22.625 5.38578 21.0025 7.0419L20.9987 7.04563C20.9353 7.12032 20.84 7.16886 20.7355 7.16886C20.7131 7.16886 20.6907 7.167 20.6683 7.1614H20.6701C19.9009 7.0419 19.0121 6.97468 18.1066 6.97468C10.6139 6.97468 4.21349 11.6499 1.66303 18.2426L1.62196 18.3621C1.03755 19.8315 0.65293 21.5306 0.546505 23.3081L0.544638 23.3529C0.542771 23.4612 0.525967 23.5658 0.496094 23.6647L0.497961 23.6572V25.4609C0.544638 25.9295 0.615588 26.3757 0.660399 26.8444C0.908723 28.8665 1.48753 30.7018 2.34452 32.3729L2.30158 32.2795C4.17055 36.0492 7.25127 38.9824 11.0228 40.6217L11.1348 40.6647C12.8096 41.4227 14.757 41.9194 16.8034 42.0463L16.85 42.0482C16.921 42.0482 16.9901 42.0575 17.0573 42.0725L17.0517 42.0706H37.0614C37.489 42.0314 37.9054 41.9884 38.3385 41.9306C40.7732 41.6505 42.9913 40.9634 45.0078 39.9328L44.8977 39.9832C48.447 38.2244 51.3354 35.5918 53.3538 32.3617L53.4042 32.2739C54.7429 30.2108 55.7119 27.7798 56.1507 25.1696L56.1656 25.0576C56.2814 24.264 56.3523 23.4425 56.4475 22.6453C56.4494 22.537 56.4662 22.4324 56.4961 22.3335L56.4942 22.3409V20.4888C56.4475 19.9529 56.3785 19.4339 56.3785 18.9447C56.0984 16.5081 55.4113 14.29 54.3807 12.2735L54.4311 12.3837C52.648 8.83805 50.0023 5.95338 46.7629 3.93131L46.6751 3.8809C44.6251 2.55899 42.2109 1.59743 39.6212 1.15493L39.5073 1.13812C38.6634 0.998092 37.8437 0.929009 36.9998 0.835654C36.8822 0.83192 36.7702 0.815116 36.6619 0.787109L36.6731 0.788976L34.9852 0.790843Z" fill="white"/>
</svg>
