<svg width="25" height="25" viewBox="0 0 25 25" fill="none" xmlns="http://www.w3.org/2000/svg">
<g clip-path="url(#clip0_41_1552)">
<path d="M12.3418 1.9668V23.9668" stroke="#FFEECD" stroke-width="1.47088" stroke-linecap="round" stroke-linejoin="round"/>
<path d="M17.3418 5.96875H9.8418C8.91354 5.96875 8.0233 6.3375 7.36692 6.99388C6.71055 7.65025 6.3418 8.54049 6.3418 9.46875C6.3418 10.397 6.71055 11.2872 7.36692 11.9436C8.0233 12.6 8.91354 12.9687 9.8418 12.9688H14.8418C15.7701 12.9688 16.6603 13.3375 17.3167 13.9939C17.973 14.6503 18.3418 15.5405 18.3418 16.4688C18.3418 17.397 17.973 18.2872 17.3167 18.9436C16.6603 19.6 15.7701 19.9687 14.8418 19.9688H6.3418" stroke="#FFEECD" stroke-width="1.47088" stroke-linecap="round" stroke-linejoin="round"/>
</g>
<defs>
<clipPath id="clip0_41_1552">
<rect width="24" height="24" fill="white" transform="translate(0.34375 0.966797)"/>
</clipPath>
</defs>
</svg>
