<svg width="73" height="72" viewBox="0 0 73 72" fill="none" xmlns="http://www.w3.org/2000/svg">
<path d="M54.4404 24C54.4404 34.839 42.8334 46.287 38.2614 50.385C37.7384 50.7845 37.0986 51.0009 36.4404 51.0009C35.7823 51.0009 35.1424 50.7845 34.6194 50.385C30.0504 46.287 18.4404 34.839 18.4404 24C18.4404 19.2261 20.3369 14.6477 23.7125 11.2721C27.0882 7.89642 31.6665 6 36.4404 6C41.2143 6 45.7927 7.89642 49.1684 11.2721C52.544 14.6477 54.4404 19.2261 54.4404 24Z" stroke="white" stroke-width="2" stroke-linecap="round" stroke-linejoin="round"/>
<path d="M36.4404 30C39.7541 30 42.4404 27.3137 42.4404 24C42.4404 20.6863 39.7541 18 36.4404 18C33.1267 18 30.4404 20.6863 30.4404 24C30.4404 27.3137 33.1267 30 36.4404 30Z" stroke="white" stroke-width="2" stroke-linecap="round" stroke-linejoin="round"/>
<path d="M26.5821 42H15.4521C14.8231 42.0003 14.2101 42.1982 13.6997 42.5659C13.1894 42.9336 12.8075 43.4524 12.6081 44.049L6.59613 62.049C6.44541 62.4999 6.40403 62.9802 6.47539 63.4503C6.54676 63.9204 6.72883 64.3667 7.00659 64.7526C7.28436 65.1385 7.64986 65.4528 8.07297 65.6697C8.49608 65.8866 8.96468 65.9998 9.44013 66H63.4401C63.9152 65.9996 64.3835 65.8864 64.8063 65.6697C65.2291 65.453 65.5943 65.139 65.872 64.7535C66.1497 64.368 66.3319 63.9221 66.4035 63.4524C66.4752 62.9827 66.4343 62.5028 66.2841 62.052L60.2841 44.052C60.0851 43.4544 59.703 42.9346 59.192 42.5663C58.681 42.198 58.067 41.9998 57.4371 42H46.3011" stroke="white" stroke-width="2" stroke-linecap="round" stroke-linejoin="round"/>
</svg>
