<svg width="31" height="32" viewBox="0 0 31 32" fill="none" xmlns="http://www.w3.org/2000/svg">
<path fill-rule="evenodd" clip-rule="evenodd" d="M0.550781 16.3482L0.552325 16.1879L0.555509 16.0275L0.560341 15.8671L0.566813 15.7067L0.574941 15.5463L0.584709 15.3859L0.596133 15.2256L0.609197 15.0653L0.623917 14.905L0.640285 14.7448L0.658301 14.5848L0.677957 14.4248L0.699269 14.265L0.722229 14.1053L0.746829 13.9458L0.773077 13.7865L0.800973 13.6273L0.830501 13.4684L0.861677 13.3097L0.894493 13.1512L0.928949 12.993L0.965029 12.835L1.00276 12.6774L1.0421 12.5201L1.08309 12.3631L1.12569 12.2064L1.16992 12.0501L1.21577 11.8942L1.26323 11.7386L1.3123 11.5835L1.36299 11.4288L1.41529 11.2745L1.46918 11.1206L1.52467 10.9673L1.58176 10.8144L1.64043 10.662L1.70069 10.5102L1.76253 10.3588L1.82595 10.2081L1.89093 10.0578L1.95749 9.90816L2.0256 9.75912L2.09526 9.61072L2.16648 9.46288L2.23924 9.31568L2.31353 9.1692L2.38936 9.02336L2.46671 8.87816L2.54557 8.73376L2.62595 8.59L2.70784 8.44696L2.79121 8.30472L2.87609 8.1632L2.96244 8.02248L3.05027 7.88256L3.13957 7.74344L3.23033 7.6052L3.32254 7.46768L3.4162 7.33112L3.51129 7.19536L3.60781 7.06048L3.70575 6.92656L3.8051 6.79344L3.90585 6.66136L4.00801 6.53016L4.11153 6.39987L4.21644 6.27059L4.32271 6.14229L4.43033 6.01498L4.53931 5.88866L4.64962 5.76338L4.76125 5.63913L4.87421 5.51592L4.98847 5.39378L5.10402 5.2727L5.22086 5.15272L5.33897 5.03383L5.45835 4.91606L5.57898 4.79941L5.70085 4.6839L5.82396 4.56954L5.94828 4.45634L6.07381 4.34433L6.20053 4.2335L6.32845 4.12386L6.45752 4.01544L6.58777 3.90825L6.71916 3.80229L6.85169 3.69758L6.98534 3.59412L7.12006 3.49194L7.25598 3.39104L7.39294 3.29144L7.53094 3.19314L7.66998 3.09616L7.81014 3.0005L7.95126 2.90618L8.09342 2.81321L8.23662 2.72159L8.38086 2.63135L8.52598 2.54249L8.67214 2.45501L8.81918 2.36894L8.96718 2.28427L9.11614 2.20102L9.26598 2.11921L9.4167 2.03882L9.5683 1.9599L9.72078 1.88242L9.87414 1.80641L10.0283 1.73187L10.1833 1.65882L10.3391 1.58726L10.4957 1.5172L10.6531 1.44865L10.8113 1.38162L10.9701 1.31611L11.1297 1.25214L11.2901 1.1897L11.4511 1.12882L11.6128 1.06948L11.7752 1.01172L11.9382 0.95552L12.1019 0.900896L12.2661 0.847864L12.431 0.796416L12.5965 0.746568L12.7626 0.698328L12.9292 0.651696L13.0964 0.606672L13.2641 0.563272L13.4322 0.521504L13.6009 0.481376L13.7701 0.442872L13.9397 0.406024L14.1097 0.370816L14.2801 0.337264L14.451 0.305376L14.6223 0.275144L14.794 0.246584L14.966 0.219696L15.1383 0.19448L15.3109 0.170952L15.4839 0.149104L15.6572 0.128944L15.8307 0.110464L16.0045 0.093696L16.1785 0.078616L16.3527 0.0652321L16.5271 0.0535601L17.465 0L17.5185 4.51894L17.5492 4.51858L17.6787 4.5184L17.8082 4.51949L17.9377 4.52185L18.0674 4.52549L18.197 4.5304L18.3267 4.53658L18.4564 4.54404L18.5861 4.55278L18.7157 4.56279L18.8453 4.57409L18.9749 4.58666L19.1044 4.60052L19.2337 4.61565L19.3631 4.63206L19.4923 4.64974L19.6214 4.6687L19.7504 4.68895L19.8793 4.71047L20.0079 4.73326L20.1365 4.75734L20.2648 4.78268L20.3929 4.8093L20.5209 4.83719L20.6485 4.86635L20.776 4.89678L20.9033 4.92847L21.0302 4.96144L21.1569 4.99566L21.2833 5.03115L21.4094 5.0679L21.5352 5.1059L21.6606 5.14515L21.7857 5.18566L21.9105 5.22742L22.0349 5.27042L22.1589 5.31467L22.2826 5.36015L22.4058 5.40688L22.5286 5.45483L22.651 5.50402L22.7729 5.55444L22.8944 5.60607L23.0154 5.65893L23.136 5.713L23.256 5.76828L23.3755 5.82476L23.4945 5.88245L23.613 5.94134L23.7309 6.00142L23.8483 6.06268L23.9651 6.12513L24.0813 6.18876L24.1969 6.25356L24.312 6.31953L24.4264 6.38666L24.5401 6.45496L24.6533 6.5244L24.7657 6.59496L24.8775 6.66672L24.9886 6.73952L25.099 6.81352L25.2088 6.88864L25.3177 6.9648L25.4261 7.04216L25.5336 7.12056L25.6403 7.20008L25.7464 7.28072L25.8516 7.3624L25.9561 7.4452L26.0597 7.52896L26.1625 7.61384L26.2645 7.69984L26.3657 7.7868L26.4661 7.8748L26.5657 7.96384L26.6642 8.05392L26.762 8.14504L26.8589 8.23712L26.9549 8.33016L27.0499 8.42424L27.1441 8.51928L27.2373 8.61536L27.3296 8.71232L27.4209 8.81024L27.5113 8.90912L27.6006 9.00896L27.689 9.10968L27.7765 9.21136L27.8629 9.31392L27.9483 9.41736L28.0327 9.52176L28.1161 9.62696L28.1984 9.73304L28.2797 9.84L28.3599 9.94784L28.439 10.0565L28.5171 10.166L28.5941 10.2763L28.67 10.3874L28.7448 10.4993L28.8185 10.612L28.891 10.7255L28.9624 10.8398L29.0327 10.9547L29.1018 11.0705L29.1698 11.187L29.2366 11.3042L29.3023 11.4221L29.3668 11.5407L29.4301 11.66L29.4921 11.78L29.553 11.9006L29.6127 12.0219L29.6712 12.1439L29.7285 12.2665L29.7845 12.3897L29.8393 12.5135L29.8928 12.6379L29.945 12.763L29.9961 12.8885L30.0458 13.0146L30.0943 13.1413L30.1415 13.2686L30.1874 13.3962L30.2321 13.5246L30.2754 13.6533L30.3175 13.7826L30.3582 13.9122L30.3977 14.0424L30.4357 14.173L30.4725 14.3041L30.508 14.4356L30.5421 14.5675L30.5749 14.6998L30.6064 14.8325L30.6365 14.9655L30.6652 15.099L30.6926 15.2326L30.7186 15.3668L30.7433 15.5012L30.7666 15.6359L30.7885 15.7709L30.8091 15.9062L30.8283 16.0418L30.8461 16.1775L30.8625 16.3136L30.8775 16.4498L30.8911 16.5863L30.9033 16.723L30.9142 16.8598L30.9237 16.9969L30.9317 17.1341L30.9383 17.2714L30.9436 17.4089L30.9473 17.5464L30.9498 17.6841L30.9508 17.8218L30.9504 17.9597L30.9485 18.0976L30.9453 18.2356L30.9406 18.3735L30.9345 18.5115L30.9271 18.6495L30.9181 18.7875L30.9078 18.9255L30.8961 19.0634L30.8829 19.2014L30.8683 19.3392L30.8522 19.4769L30.8348 19.6146L30.816 19.7521L30.7957 19.8895L30.774 20.0268L30.7509 20.1639L30.7263 20.3009L30.7004 20.4377L30.673 20.5743L30.6442 20.7107L30.614 20.8469L30.5824 20.9829L30.5494 21.1186L30.5149 21.254L30.4791 21.3891L30.4419 21.524L30.4033 21.6586L30.3633 21.7928L30.3218 21.9268L30.2789 22.0603L30.2348 22.1936L30.1892 22.3264L30.1421 22.4589L30.0938 22.591L30.0441 22.7226L29.9929 22.8538L29.9405 22.9846L29.8866 23.1149L29.8314 23.2447L29.7749 23.3742L29.7169 23.503L29.6577 23.6314L29.597 23.7592L29.5351 23.8865L29.4717 24.0133L29.4072 24.1394L29.3412 24.2651L29.274 24.3901L29.2053 24.5146L29.1355 24.6383L29.0643 24.7615L28.9918 24.8841L28.9181 25.0059L28.843 25.1272L28.7666 25.2477L28.689 25.3675L28.6102 25.4866L28.5301 25.605L28.4487 25.7227L28.3661 25.8397L28.2822 25.9558L28.1971 26.0713L28.1108 26.1859L28.0233 26.2998L27.9345 26.4127L27.8446 26.525L27.7535 26.6363L27.6612 26.7468L27.5677 26.8565L27.473 26.9653L27.3772 27.0732L27.2802 27.1802L27.1821 27.2864L27.0829 27.3916L26.9825 27.4959L26.8811 27.5992L26.7785 27.7016L26.6748 27.803L26.5701 27.9035L26.4642 28.003L26.3573 28.1015L26.2493 28.199L26.1403 28.2954L26.0303 28.3909L25.9192 28.4854L25.8071 28.5787L25.694 28.671L25.5799 28.7622L25.4648 28.8524L25.3487 28.9414L25.2317 29.0294L25.1137 29.1162L24.9948 29.202L24.8749 29.2866L24.7541 29.3701L24.6324 29.4524L24.5098 29.5335L24.3863 29.6135L24.262 29.6924L24.1368 29.77L24.0107 29.8465L23.8837 29.9217L23.756 29.9958L23.6275 30.0686L23.4981 30.1401L23.368 30.2105L23.237 30.2795L23.1053 30.3474L22.9729 30.414L22.8397 30.4793L22.7057 30.5433L22.5711 30.6061L22.4357 30.6675L22.2997 30.7277L22.163 30.7865L22.0257 30.844L21.8877 30.9002L21.749 30.9551L21.6097 31.0086L21.4698 31.0609L21.3293 31.1117L21.1882 31.1612L21.0466 31.2093L20.9045 31.2561L20.7617 31.3014L20.6184 31.3454L20.4746 31.3881L20.3304 31.4293L20.1856 31.4691L20.0404 31.5076L19.8946 31.5446L19.7485 31.5802L19.602 31.6144L19.4549 31.6471L19.3076 31.6785L19.1598 31.7084L19.0117 31.7369L18.8632 31.7639L18.7144 31.7894L18.5652 31.8136L18.4157 31.8363L18.2659 31.8575L18.1159 31.8773L17.9656 31.8956L17.8149 31.9124L17.6641 31.9278L17.5131 31.9417L17.3619 31.9541L17.2105 31.965L17.0589 31.9745L16.907 31.9825L16.7551 31.989L16.6031 31.9939L16.4509 31.9974L16.2986 31.9994L16.1462 32L15.9938 31.999L15.8413 31.9966L15.6888 31.9926L15.5362 31.9871L15.3837 31.9802L15.2311 31.9718L15.0786 31.9618L14.9261 31.9503L14.7737 31.9374L14.6213 31.9229L14.4689 31.907L14.3168 31.8895L14.1647 31.8706L14.0127 31.8501L13.8609 31.8281L13.7093 31.8046L13.5578 31.7797L13.4065 31.7533L13.2554 31.7253L13.1046 31.6958L12.954 31.665L12.8037 31.6325L12.6535 31.5986L12.5037 31.5632L12.3542 31.5263L12.205 31.4879L12.0561 31.4481L11.9077 31.4068L11.7595 31.364L11.6117 31.3198L11.4643 31.274L11.3173 31.2268L11.1708 31.1782L11.0246 31.128L10.8789 31.0764L10.7337 31.0234L10.589 30.969L10.4448 30.913L10.3011 30.8557L10.1579 30.7969L10.0153 30.7366L9.87318 30.675L9.73166 30.612L9.5907 30.5475L9.45038 30.4816L9.3107 30.4143L9.17166 30.3456L9.03318 30.2755L8.89542 30.2041L8.75838 30.1312L8.6219 30.057L8.48622 29.9814L8.35126 29.9045L8.21702 29.8262L8.0835 29.7465L7.95078 29.6655L7.81878 29.5831L7.68758 29.4995L7.55726 29.4145L7.42766 29.3282L7.29894 29.2406L7.1711 29.1517L7.04406 29.0615L6.91791 28.97L6.79265 28.8773L6.66828 28.7832L6.54483 28.6879L6.4223 28.5914L6.30071 28.4936L6.18008 28.3946L6.06041 28.2944L5.94171 28.193L5.82401 28.0903L5.70731 27.9864L5.59163 27.8814L5.47698 27.7752L5.36337 27.6678L5.25081 27.5593L5.13933 27.4495L5.02891 27.3387L4.91959 27.2268L4.81137 27.1137L4.70427 26.9995L4.59829 26.8842L4.49346 26.7678L4.38977 26.6504L4.28725 26.5319L4.18589 26.4123L4.08573 26.2918L3.98676 26.1701L3.88899 26.0474L3.79245 25.9238L3.69713 25.7991L3.60305 25.6734L3.51021 25.5468L3.41865 25.4192L3.32834 25.2906L3.23933 25.1612L3.1516 25.0308L3.06517 24.8994L2.98006 24.7673L2.89626 24.6342L2.8138 24.5002L2.73268 24.3654L2.6529 24.2296L2.57449 24.0931L2.49745 23.9558L2.42177 23.8176L2.34749 23.6786L2.2746 23.5388L2.20312 23.3983L2.13304 23.257L2.06439 23.115L1.99717 22.9722L1.93137 22.8288L1.86703 22.6846L1.80413 22.5398L1.7427 22.3942L1.68274 22.248L1.62425 22.1011L1.56724 21.9536L1.51173 21.8055L1.4577 21.6568L1.40518 21.5075L1.35417 21.3577L1.30467 21.2072L1.2567 21.0562L1.21025 20.9047L1.16535 20.7527L1.12198 20.6002L1.08016 20.4471L1.03989 20.2937L1.00117 20.1398L0.964021 19.9854L0.928445 19.8306L0.894437 19.6753L0.862005 19.5197L0.831157 19.3637L0.801893 19.2074L0.774221 19.0506L0.748149 18.8936L0.723669 18.7362L0.700797 18.5786L0.679533 18.4206L0.659885 18.2623L0.641845 18.1038L0.625421 17.9451L0.610621 17.7862L0.597445 17.627L0.585893 17.4677L0.575973 17.3082L0.567685 17.1485L0.561029 16.9886L0.556005 16.8287L0.552621 16.6686L0.550885 16.5085L0.550781 16.3482ZM16.0533 4.61359L16.0168 1.53343L15.9821 1.53678L15.8231 1.5537L15.6645 1.57217L15.5059 1.5922L15.348 1.61372L15.1902 1.63681L15.0326 1.66144L14.8755 1.68758L14.7185 1.71529L14.5624 1.74443L14.406 1.77521L14.2507 1.80737L14.0952 1.84115L13.9405 1.87637L13.7859 1.91315L13.6321 1.95134L13.4786 1.99107L13.3256 2.03228L13.173 2.07498L13.0212 2.1191L12.8696 2.16475L12.7188 2.21182L12.5684 2.26038L12.4188 2.31028L12.2694 2.36176L12.1209 2.41462L11.973 2.46887L11.8256 2.52461L11.6789 2.5817L11.5331 2.64018L11.3877 2.70015L11.2429 2.76149L11.0989 2.82422L10.9557 2.88828L10.8133 2.95373L10.6716 3.0205L10.5304 3.08874L10.3902 3.15822L10.2508 3.22906L10.1121 3.30124L9.9743 3.37475L9.83742 3.44952L9.7011 3.52567L9.56566 3.60314L9.43142 3.68172L9.29758 3.76183L9.16502 3.84301L9.03334 3.92545L8.9023 4.00924L8.7723 4.09426L8.64326 4.18051L8.51542 4.26778L8.38806 4.3566L8.26198 4.44637L8.13686 4.53738L8.01262 4.62963L7.8895 4.72298L7.7675 4.81746L7.64622 4.91326L7.5263 5.00997L7.40726 5.10795L7.28934 5.207L7.17246 5.3072L7.05678 5.40836L6.94197 5.5108L6.82846 5.61415L6.71593 5.7187L6.60469 5.82412L6.49448 5.93069L6.38549 6.03822L6.27761 6.14681L6.17077 6.25652L6.06534 6.36698L5.96109 6.4784L5.85777 6.59112L5.75589 6.70456L5.65525 6.8188L5.55564 6.93424L5.45748 7.0504L5.3604 7.1676L5.26464 7.2856L5.17013 7.40456L5.07685 7.52432L4.98494 7.64488L4.89424 7.76632L4.80478 7.88872L4.71677 8.01168L4.62993 8.13568L4.54447 8.26032L4.46033 8.38576L4.37746 8.512L4.29599 8.63896L4.21585 8.76656L4.13706 8.89496L4.05968 9.024L3.98357 9.15384L3.90882 9.2844L3.83555 9.41544L3.76359 9.5472L3.69301 9.67968L3.62385 9.81272L3.55606 9.9464L3.48973 10.0806L3.42477 10.2154L3.36125 10.3507L3.29912 10.4867L3.23845 10.6231L3.17917 10.7602L3.12133 10.8977L3.06497 11.0356L3.01001 11.1741L2.9565 11.313L2.90446 11.4524L2.85386 11.5922L2.80476 11.7324L2.75707 11.8731L2.71086 12.0142L2.66613 12.1556L2.62289 12.2973L2.58108 12.4395L2.54078 12.5819L2.50196 12.7247L2.46461 12.8678L2.42874 13.0112L2.39437 13.1548L2.36149 13.2987L2.3301 13.4429L2.30021 13.5873L2.27181 13.7318L2.24489 13.8766L2.21949 14.0216L2.19557 14.1668L2.17317 14.3121L2.15225 14.4575L2.13285 14.6031L2.11493 14.7488L2.09853 14.8946L2.08362 15.0405L2.07022 15.1864L2.05832 15.3323L2.04792 15.4784L2.03902 15.6245L2.03162 15.7705L2.02573 15.9166L2.02133 16.0626L2.01843 16.2086L2.01702 16.3545L2.01712 16.5004L2.0187 16.6462L2.02178 16.7919L2.02635 16.9375L2.03241 17.083L2.03996 17.2283L2.04898 17.3734L2.05949 17.5185L2.07149 17.6633L2.08496 17.8079L2.09989 17.9524L2.11631 18.0966L2.13419 18.2406L2.15353 18.3842L2.17434 18.5277L2.19661 18.6709L2.22033 18.8137L2.2455 18.9562L2.27212 19.0985L2.30017 19.2403L2.32967 19.3819L2.3606 19.523L2.39296 19.6638L2.42674 19.8042L2.46194 19.9442L2.49857 20.0838L2.53658 20.2229L2.57602 20.3616L2.61685 20.4998L2.65908 20.6376L2.70269 20.7749L2.74768 20.9116L2.79405 21.0478L2.84179 21.1835L2.89089 21.3187L2.94134 21.4533L2.99317 21.5874L3.04632 21.7208L3.10081 21.8537L3.15664 21.9859L3.21378 22.1175L3.27225 22.2486L3.33203 22.379L3.39311 22.5086L3.45548 22.6377L3.51914 22.766L3.58408 22.8937L3.65029 23.0206L3.71777 23.1469L3.7865 23.2724L3.85648 23.3971L3.92769 23.5211L4.00014 23.6444L4.07382 23.7668L4.14868 23.8885L4.22479 24.0094L4.30206 24.1294L4.38054 24.2486L4.4602 24.367L4.54101 24.4846L4.62297 24.6013L4.70612 24.7171L4.79037 24.8321L4.87579 24.9462L4.96229 25.0593L5.04994 25.1715L5.13865 25.2828L5.22847 25.3932L5.3194 25.5027L5.41134 25.6112L5.50438 25.7187L5.59845 25.8253L5.6936 25.9309L5.78974 26.0354L5.88689 26.139L5.98506 26.2416L6.08422 26.3432L6.1844 26.4438L6.28552 26.5432L6.38763 26.6417L6.49065 26.739L6.59463 26.8354L6.69957 26.9307L6.8054 27.0249L6.91208 27.1179L7.01974 27.2099L7.1283 27.3008L7.23758 27.3906L7.3479 27.4793L7.45894 27.5667L7.57086 27.6531L7.68358 27.7384L7.79718 27.8225L7.9115 27.9054L8.02662 27.9871L8.14246 28.0677L8.25918 28.1471L8.37654 28.2253L8.49478 28.3023L8.61358 28.3782L8.73318 28.4527L8.8535 28.5262L8.97438 28.5983L9.09606 28.6693L9.2183 28.739L9.34126 28.8074L9.46478 28.8746L9.58902 28.9406L9.71374 29.0054L9.8391 29.0689L9.9651 29.131L10.0917 29.192L10.2187 29.2517L10.3463 29.3101L10.4744 29.3671L10.6031 29.423L10.7322 29.4774L10.8619 29.5307L10.992 29.5826L11.1225 29.6332L11.2536 29.6826L11.3849 29.7306L11.5168 29.7772L11.6491 29.8226L11.7817 29.8666L11.9148 29.9094L12.0481 29.9507L12.1819 29.9908L12.3159 30.0295L12.4503 30.0669L12.585 30.103L12.72 30.1377L12.8553 30.171L12.9907 30.203L13.1265 30.2338L13.2625 30.263L13.3987 30.291L13.5352 30.3177L13.6718 30.343L13.8086 30.3669L13.9456 30.3894L14.0827 30.4106L14.22 30.4305L14.3574 30.449L14.4949 30.4662L14.6325 30.4819L14.7701 30.4963L14.9079 30.5094L15.0457 30.5211L15.1836 30.5315L15.3214 30.5405L15.4593 30.5482L15.5972 30.5544L15.735 30.5594L15.8729 30.563L16.0107 30.5651L16.1484 30.566L16.2861 30.5655L16.4237 30.5637L16.5611 30.5606L16.6985 30.556L16.8357 30.5502L16.9729 30.543L17.1097 30.5344L17.2465 30.5246L17.3832 30.5134L17.5196 30.5008L17.6557 30.4869L17.7917 30.4717L17.9274 30.4552L18.0629 30.4374L18.1981 30.4182L18.3331 30.3977L18.4677 30.3759L18.6021 30.3528L18.7362 30.3284L18.8699 30.3027L19.0033 30.2758L19.1363 30.2474L19.2689 30.2179L19.4012 30.187L19.5331 30.1549L19.6645 30.1215L19.7956 30.0868L19.9261 30.0509L20.0564 30.0137L20.1861 29.9752L20.3153 29.9355L20.4441 29.8946L20.5724 29.8524L20.7001 29.809L20.8273 29.7644L20.9541 29.7185L21.0802 29.6714L21.2058 29.6231L21.3309 29.5737L21.4553 29.523L21.5791 29.4711L21.7024 29.4181L21.825 29.3638L21.9469 29.3085L22.0684 29.2519L22.1891 29.1942L22.3091 29.1354L22.4285 29.0753L22.5472 29.0142L22.6652 28.9519L22.7825 28.8885L22.899 28.824L23.0149 28.7584L23.1299 28.6918L23.2444 28.6239L23.3578 28.5551L23.4708 28.4851L23.5827 28.4142L23.6939 28.3421L23.8044 28.269L23.9141 28.1947L24.0227 28.1197L24.1306 28.0434L24.2377 27.9662L24.344 27.8881L24.4494 27.8088L24.5538 27.7287L24.6576 27.6474L24.7602 27.5654L24.862 27.4823L24.963 27.3982L25.063 27.3132L25.162 27.2274L25.2601 27.1405L25.3573 27.0528L25.4535 26.9642L25.5488 26.8746L25.6429 26.7843L25.7363 26.693L25.8286 26.6008L25.9199 26.5078L26.0102 26.414L26.0994 26.3194L26.1876 26.2241L26.2749 26.1276L26.361 26.0306L26.4462 25.9327L26.5302 25.8342L26.6133 25.7347L26.6952 25.6346L26.776 25.5338L26.8558 25.4321L26.9345 25.3298L27.0121 25.2267L27.0885 25.123L27.164 25.0186L27.2384 24.9134L27.3113 24.8078L27.3834 24.7013L27.4542 24.5943L27.524 24.4866L27.5927 24.3782L27.6601 24.2694L27.7263 24.1599L27.7915 24.0496L27.8553 23.9391L27.9181 23.8278L27.9798 23.716L28.0401 23.6038L28.0994 23.4909L28.1575 23.3774L28.2142 23.2639L28.2699 23.1494L28.3244 23.0346L28.3776 22.9194L28.4296 22.8037L28.4804 22.6875L28.5299 22.571L28.5783 22.4539L28.6254 22.3365L28.6713 22.219L28.7159 22.1006L28.7593 21.9822L28.8015 21.8632L28.8425 21.744L28.8821 21.6244L28.9205 21.5048L28.9577 21.3843L28.9936 21.264L29.0282 21.1433L29.0617 21.0224L29.0938 20.901L29.1246 20.7797L29.1543 20.6579L29.1826 20.5359L29.2097 20.4138L29.2356 20.2914L29.2601 20.1691L29.2833 20.0462L29.3053 19.9237L29.3261 19.8006L29.3455 19.6775L29.3637 19.5544L29.3806 19.431L29.3962 19.3078L29.4106 19.1841L29.4237 19.0608L29.4355 18.9371L29.446 18.8137L29.4553 18.6898L29.4633 18.5665L29.47 18.4427L29.4754 18.3189L29.4796 18.1954L29.4825 18.0721L29.4841 17.9483L29.4845 17.8248L29.4837 17.7014L29.4815 17.5782L29.4781 17.4549L29.4733 17.3321L29.4674 17.2088L29.4602 17.0861L29.4517 16.9634L29.4421 16.841L29.4311 16.7185L29.4189 16.5965L29.4055 16.4744L29.3908 16.3527L29.3749 16.2311L29.3577 16.1099L29.3393 15.9886L29.3197 15.8679L29.2989 15.7476L29.2768 15.6272L29.2534 15.5072L29.2289 15.3877L29.2032 15.2681L29.1764 15.1494L29.1481 15.0305L29.1189 14.9124L29.0883 14.7942L29.0566 14.6768L29.0237 14.5596L28.9897 14.4426L28.9545 14.3264L28.9181 14.2106L28.8804 14.0948L28.8417 13.9799L28.8017 13.8651L28.7608 13.751L28.7185 13.6372L28.6753 13.5242L28.6307 13.4113L28.5851 13.299L28.5385 13.1875L28.4907 13.0765L28.4416 12.9656L28.3917 12.8558L28.3405 12.746L28.2883 12.6373L28.235 12.529L28.1805 12.421L28.1252 12.314L28.0686 12.2074L28.0109 12.1014L27.9525 11.9963L27.8928 11.8915L27.8321 11.7876L27.7703 11.6842L27.7077 11.5818L27.6438 11.4796L27.5792 11.3784L27.5133 11.2777L27.4466 11.1778L27.379 11.0789L27.3102 10.9803L27.2405 10.8826L27.17 10.7857L27.0984 10.6896L27.0259 10.5941L26.9525 10.4995L26.8781 10.4056L26.8029 10.3126L26.7267 10.2203L26.6496 10.1288L26.5716 10.0382L26.4928 9.94832L26.4132 9.85936L26.3326 9.7712L26.251 9.68376L26.169 9.59752L26.0857 9.51176L26.0019 9.4272L25.9172 9.34328L25.8317 9.2604L25.7452 9.17816L25.6583 9.0972L25.5703 9.01688L25.4816 8.93752L25.3924 8.8592L25.3023 8.78176L25.2112 8.70504L25.1196 8.62944L25.0273 8.5548L24.9343 8.48112L24.8405 8.40832L24.7463 8.33672L24.651 8.26568L24.5554 8.196L24.459 8.1272L24.3619 8.05928L24.2644 7.99248L24.1658 7.92648L24.0673 7.86184L23.9676 7.79792L23.8676 7.73512L23.7668 7.67328L23.6656 7.61248L23.5638 7.5528L23.4617 7.49424L23.3585 7.4364L23.2554 7.37992L23.1514 7.32432L23.047 7.26984L22.9422 7.21648L22.8368 7.16408L22.7309 7.11272L22.6247 7.06256L22.5179 7.01336L22.4109 6.96536L22.3033 6.91832L22.1918 6.87096L22.087 6.82768L21.978 6.78384L21.8691 6.74136L21.7593 6.69968L21.6496 6.65936L21.5393 6.62L21.4289 6.58184L21.3179 6.54464L21.2069 6.50872L21.0953 6.47384L20.9836 6.44008L20.8717 6.40752L20.7594 6.37597L20.6467 6.3455L20.5341 6.31628L20.4213 6.28817L20.3078 6.26109L20.1947 6.23526L20.081 6.21046L19.9673 6.18686L19.8533 6.16433L19.7393 6.14298L19.6251 6.12274L19.5109 6.10368L19.3962 6.08568L19.2818 6.06887L19.1672 6.05318L19.0524 6.03861L18.9376 6.02518L18.8228 6.01291L18.7079 6.00176L18.5929 5.99174L18.4779 5.98286L18.3628 5.9751L18.248 5.96849L18.1331 5.96301L18.0178 5.95865L17.9032 5.95543L17.7883 5.95334L17.6735 5.95238L17.5585 5.95254L17.5355 5.9528L17.5717 9.01056L17.6369 9.01024L17.7209 9.01072L17.8048 9.012L17.8888 9.01416L17.9729 9.01712L18.0569 9.02096L18.141 9.0256L18.2252 9.03104L18.3093 9.03736L18.3935 9.04448L18.4777 9.05248L18.5617 9.06128L18.6459 9.07096L18.73 9.08144L18.814 9.09272L18.898 9.10496L18.9819 9.11792L19.0657 9.13176L19.1496 9.14648L19.2333 9.162L19.3169 9.1784L19.4004 9.1956L19.4838 9.2136L19.5671 9.23248L19.6502 9.25224L19.7333 9.2728L19.8161 9.29416L19.8988 9.3164L19.9813 9.33944L20.0637 9.36336L20.146 9.38808L20.228 9.4136L20.3097 9.44L20.3913 9.4672L20.4728 9.49528L20.5539 9.52416L20.6349 9.55384L20.7155 9.58432L20.796 9.61568L20.8761 9.64784L20.9561 9.6808L21.0357 9.71464L21.115 9.7492L21.1941 9.78464L21.2728 9.8208L21.3512 9.85784L21.4293 9.89568L21.5071 9.93432L21.5845 9.97376L21.6617 10.014L21.7384 10.055L21.8148 10.0968L21.8908 10.1394L21.9664 10.1827L22.0417 10.2269L22.1165 10.2718L22.1909 10.3175L22.2649 10.364L22.3385 10.4113L22.4117 10.4593L22.4845 10.508L22.5568 10.5575L22.6286 10.6078L22.7 10.6588L22.7709 10.7106L22.8413 10.7631L22.9113 10.8163L22.9806 10.8703L23.0496 10.925L23.118 10.9804L23.1859 11.0366L23.2533 11.0934L23.3201 11.151L23.3865 11.2092L23.4522 11.2682L23.5174 11.3278L23.582 11.3882L23.6461 11.4492L23.7095 11.5109L23.7724 11.5733L23.8347 11.6363L23.8964 11.7001L23.9575 11.7644L24.0179 11.8294L24.0777 11.8951L24.1369 11.9614L24.1955 12.0283L24.2534 12.0959L24.3107 12.1641L24.3673 12.2329L24.4233 12.3023L24.4785 12.3723L24.5331 12.443L24.587 12.5142L24.6402 12.586L24.6927 12.6583L24.7445 12.7313L24.7956 12.8048L24.846 12.8789L24.8956 12.9535L24.9445 13.0286L24.9926 13.1044L25.0401 13.1806L25.0868 13.2574L25.1327 13.3346L25.1778 13.4125L25.2222 13.4907L25.2658 13.5695L25.3086 13.6488L25.3507 13.7286L25.392 13.8088L25.4324 13.8895L25.4721 13.9707L25.5109 14.0523L25.5489 14.1343L25.5861 14.2169L25.6225 14.2998L25.6581 14.3831L25.6929 14.4669L25.7268 14.551L25.7598 14.6356L25.792 14.7205L25.8233 14.8058L25.8538 14.8915L25.8835 14.9776L25.9123 15.064L25.9401 15.1508L25.9672 15.2378L25.9933 15.3253L26.0186 15.413L26.043 15.5011L26.0665 15.5895L26.0891 15.6782L26.1108 15.7671L26.1316 15.8563L26.1515 15.9458L26.1705 16.0356L26.1885 16.1256L26.2057 16.2158L26.2219 16.3064L26.2373 16.3971L26.2517 16.488L26.2651 16.5792L26.2777 16.6705L26.2893 16.762L26.3 16.8538L26.3097 16.9457L26.3185 17.0377L26.3264 17.1299L26.3333 17.2222L26.3393 17.3147L26.3442 17.4073L26.3483 17.5L26.3514 17.5929L26.3536 17.6858L26.3548 17.7788L26.355 17.8719L26.3543 17.965L26.3526 18.0582L26.35 18.1515L26.3464 18.2449L26.3418 18.3382L26.3363 18.4315L26.3298 18.525L26.3224 18.6183L26.3139 18.7117L26.3045 18.805L26.2941 18.8983L26.2829 18.9917L26.2705 19.0849L26.2573 19.1781L26.243 19.2712L26.2278 19.3642L26.2117 19.4572L26.1945 19.5501L26.1764 19.6429L26.1573 19.7355L26.1372 19.8281L26.1162 19.9205L26.0942 20.0127L26.0713 20.1048L26.0473 20.1968L26.0225 20.2886L25.9966 20.3802L25.9698 20.4715L25.9421 20.5627L25.9133 20.6538L25.8836 20.7446L25.8529 20.835L25.8213 20.9254L25.7889 21.0154L25.7553 21.1052L25.7209 21.1947L25.6855 21.284L25.6492 21.373L25.6119 21.4617L25.5737 21.55L25.5345 21.6381L25.4945 21.7258L25.4534 21.8132L25.4115 21.9002L25.3686 21.987L25.3248 22.0733L25.2801 22.1593L25.2345 22.2448L25.1879 22.33L25.1405 22.4148L25.0921 22.4992L25.0429 22.5831L24.9927 22.6667L24.9417 22.7498L24.8897 22.8325L24.8369 22.9146L24.7832 22.9964L24.7285 23.0776L24.6731 23.1584L24.6168 23.2387L24.5596 23.3185L24.5015 23.3978L24.4426 23.4766L24.3829 23.5548L24.3222 23.6325L24.2608 23.7096L24.1985 23.7862L24.1353 23.8622L24.0714 23.9378L24.0066 24.0126L23.941 24.087L23.8746 24.1606L23.8074 24.2338L23.7394 24.3062L23.6707 24.3782L23.6011 24.4494L23.5308 24.52L23.4596 24.5899L23.3877 24.6593L23.315 24.7279L23.2417 24.7958L23.1675 24.8632L23.0925 24.9298L23.0169 24.9957L22.9405 25.061L22.8635 25.1254L22.7857 25.1893L22.7072 25.2523L22.6279 25.3146L22.548 25.3762L22.4674 25.4371L22.3861 25.4972L22.3041 25.5566L22.2216 25.6152L22.1383 25.673L22.0544 25.73L21.9697 25.7862L21.8845 25.8417L21.7987 25.8963L21.7123 25.9502L21.6252 26.0031L21.5376 26.0554L21.4493 26.1067L21.3605 26.1572L21.271 26.2069L21.181 26.2558L21.0905 26.3038L20.9993 26.3509L20.9077 26.3971L20.8155 26.4425L20.7228 26.487L20.6295 26.5306L20.5357 26.5734L20.4415 26.6152L20.3468 26.6562L20.2515 26.6962L20.1558 26.7353L20.0597 26.7735L19.963 26.8108L19.866 26.8472L19.7685 26.8826L19.6705 26.9171L19.5721 26.9506L19.4734 26.9833L19.3742 27.0149L19.2747 27.0456L19.1748 27.0754L19.0745 27.1041L18.9738 27.1319L18.8728 27.1587L18.7714 27.1846L18.6697 27.2094L18.5677 27.2334L18.4653 27.2562L18.3628 27.2782L18.2598 27.299L18.1566 27.319L18.0532 27.3379L17.9494 27.3558L17.8454 27.3727L17.7413 27.3886L17.6368 27.4034L17.5321 27.4173L17.4272 27.4302L17.3221 27.4419L17.2169 27.4527L17.1114 27.4625L17.0058 27.4712L16.9001 27.4789L16.7941 27.4855L16.6881 27.4911L16.5819 27.4957L16.4756 27.4992L16.3692 27.5017L16.2627 27.5031L16.1561 27.5035L16.0494 27.5029L15.9428 27.5011L15.836 27.4984L15.7292 27.4946L15.6224 27.4897L15.5155 27.4838L15.4087 27.4768L15.3018 27.4688L15.195 27.4597L15.0882 27.4495L14.9814 27.4383L14.8747 27.4261L14.7681 27.4128L14.6614 27.3984L14.5549 27.383L14.4485 27.3665L14.3422 27.349L14.236 27.3303L14.1299 27.3107L14.024 27.29L13.9182 27.2682L13.8125 27.2454L13.7071 27.2215L13.6018 27.1966L13.4967 27.1706L13.3918 27.1435L13.2871 27.1154L13.1826 27.0863L13.0785 27.0562L12.9745 27.025L12.8707 26.9927L12.7673 26.9594L12.6641 26.925L12.5612 26.8897L12.4586 26.8533L12.3564 26.8158L12.2544 26.7774L12.1528 26.7378L12.0515 26.6974L11.9505 26.6558L11.85 26.6132L11.7498 26.5697L11.6501 26.525L11.5506 26.4794L11.4517 26.4329L11.3531 26.3853L11.2549 26.3366L11.1572 26.287L11.06 26.2365L10.9632 26.1849L10.8669 26.1323L10.771 26.0788L10.6757 26.0242L10.5808 25.9688L10.4865 25.9123L10.3926 25.8549L10.2993 25.7966L10.2066 25.7372L10.1145 25.677L10.0229 25.6157L9.93182 25.5535L9.84134 25.4905L9.7515 25.4265L9.66222 25.3615L9.57358 25.2957L9.4855 25.2289L9.39814 25.1612L9.31142 25.0926L9.22534 25.0231L9.1399 24.9528L9.0551 24.8815L8.97102 24.8094L8.88766 24.7364L8.80494 24.6626L8.72294 24.5878L8.64174 24.5123L8.56118 24.4359L8.48134 24.3586L8.4023 24.2806L8.32406 24.2017L8.24654 24.1219L8.16974 24.0414L8.09374 23.9601L8.01862 23.878L7.94422 23.795L7.87062 23.7114L7.7979 23.6269L7.7259 23.5417L7.65486 23.4557L7.58454 23.3689L7.51518 23.2814L7.44662 23.1932L7.37894 23.1042L7.31214 23.0146L7.24614 22.9242L7.1811 22.8331L7.11702 22.7414L7.05374 22.6489L6.99142 22.5558L6.93003 22.462L6.86956 22.3675L6.81001 22.2724L6.75142 22.1766L6.69377 22.0802L6.63708 21.9833L6.58136 21.8856L6.5266 21.7874L6.47282 21.6886L6.42003 21.5892L6.36822 21.4892L6.31741 21.3886L6.26761 21.2875L6.21882 21.1858L6.17104 21.0837L6.12429 20.9809L6.07857 20.8777L6.03388 20.7739L5.99023 20.6696L5.94762 20.5649L5.90608 20.4597L5.86558 20.3539L5.82615 20.2478L5.78778 20.1412L5.75049 20.0341L5.71429 19.9266L5.67916 19.8187L5.64512 19.7104L5.61217 19.6018L5.58033 19.4926L5.54958 19.3832L5.51994 19.2734L5.49142 19.1631L5.46401 19.0526L5.43772 18.9418L5.41256 18.8306L5.38852 18.719L5.36561 18.6073L5.34385 18.4952L5.32321 18.3828L5.30373 18.2702L5.28539 18.1573L5.2682 18.0442L5.25216 17.9308L5.23728 17.8172L5.22356 17.7034L5.211 17.5894L5.1996 17.4752L5.18937 17.3608L5.18031 17.2462L5.17242 17.1316L5.1657 17.0167L5.16017 16.9018L5.15581 16.7867L5.15263 16.6715L5.15063 16.5562L5.14981 16.4408L5.15019 16.3254L5.15174 16.2098L5.15449 16.0943L5.15842 15.9787L5.16355 15.863L5.16987 15.7474L5.17737 15.6318L5.18608 15.5162L5.19597 15.4005L5.20705 15.285L5.21934 15.1694L5.23281 15.0539L5.24749 14.9385L5.26335 14.8231L5.28041 14.7078L5.29866 14.5927L5.3181 14.4777L5.33874 14.3628L5.36057 14.248L5.3836 14.1334L5.4078 14.019L5.43321 13.9046L5.45981 13.7906L5.48758 13.6766L5.51654 13.563L5.54669 13.4495L5.57802 13.3362L5.61053 13.2233L5.64423 13.1106L5.67909 12.9981L5.71514 12.8858L5.75236 12.774L5.79074 12.6624L5.8303 12.5511L5.87102 12.4402L5.9129 12.3295L5.95594 12.2193L6.00014 12.1094L6.04549 11.9998L6.092 11.8907L6.13965 11.7819L6.18845 11.6736L6.23837 11.5657L6.28945 11.4582L6.34165 11.3511L6.39498 11.2446L6.44944 11.1384L6.50501 11.0328L6.5617 10.9276L6.61951 10.823L6.67842 10.7188L6.73843 10.6151L6.79954 10.5121L6.86175 10.4095L6.92504 10.3075L6.98942 10.2061L7.05486 10.1052L7.12142 10.005L7.18894 9.90528L7.25766 9.80624L7.32734 9.70776L7.39806 9.60992L7.4699 9.5128L7.5427 9.41624L7.61662 9.3204L7.6915 9.2252L7.76742 9.13072L7.8443 9.03696L7.92222 8.94384L8.00118 8.85144L8.0811 8.75976L8.16198 8.66888L8.2439 8.57872L8.3267 8.48928L8.41054 8.40064L8.49534 8.31272L8.58102 8.22568L8.66766 8.13936L8.75526 8.05384L8.84382 7.9692L8.93326 7.88528L9.02358 7.80232L9.11486 7.72008L9.20702 7.6388L9.29998 7.55832L9.3939 7.47872L9.4887 7.4L9.5843 7.32216L9.68078 7.2452L9.77814 7.1692L9.8763 7.09408L9.97526 7.01992L10.0751 6.94664L10.1757 6.87432L10.277 6.80296L10.3793 6.73256L10.4822 6.66312L10.5859 6.59472L10.6905 6.5272L10.7957 6.46072L10.9017 6.39523L11.0084 6.33074L11.1158 6.26727L11.2239 6.20482L11.3328 6.1434L11.4423 6.08301L11.5525 6.02367L11.6633 5.96538L11.7749 5.90815L11.887 5.85198L11.9998 5.79689L12.1133 5.74287L12.2273 5.68994L12.342 5.6381L12.4573 5.58736L12.5731 5.53773L12.6895 5.48921L12.8065 5.4418L12.9239 5.39552L13.042 5.35037L13.1605 5.30635L13.2797 5.26348L13.3993 5.22175L13.5193 5.18118L13.6399 5.14176L13.7609 5.10351L13.8824 5.06642L14.0043 5.03051L14.1267 4.99578L14.2494 4.96223L14.3726 4.92987L14.4962 4.8987L14.6202 4.86874L14.7445 4.83998L14.8693 4.81241L14.9943 4.78606L15.1197 4.76092L15.2454 4.73701L15.3714 4.71431L15.4977 4.69284L15.6244 4.6726L15.7513 4.65359L15.8784 4.63582L16.0057 4.61929L16.0533 4.61359ZM16.107 9.14888L16.0704 6.05751L15.966 6.0721L15.8537 6.08893L15.7414 6.10687L15.6298 6.12584L15.5181 6.14597L15.4069 6.16713L15.2959 6.18938L15.1853 6.21266L15.075 6.23706L14.9649 6.26253L14.8552 6.28905L14.7459 6.31662L14.6367 6.34529L14.5318 6.37392L14.4201 6.40568L14.3121 6.43744L14.2047 6.47024L14.0978 6.504L13.9912 6.53888L13.8849 6.5748L13.7792 6.61168L13.674 6.64952L13.5692 6.68848L13.4649 6.72832L13.3609 6.76928L13.2578 6.81112L13.1547 6.85408L13.0524 6.89792L12.9505 6.94272L12.8494 6.98848L12.7485 7.03528L12.6482 7.08304L12.5488 7.1316L12.4495 7.18128L12.3513 7.23176L12.2532 7.28336L12.1561 7.3356L12.0591 7.38912L11.9631 7.4432L11.8677 7.49832L11.7729 7.5544L11.6787 7.61128L11.585 7.6692L11.4923 7.72776L11.4 7.78736L11.3085 7.84776L11.2177 7.90896L11.1276 7.97112L11.038 8.03416L10.9494 8.09776L10.8613 8.16248L10.774 8.22792L10.6874 8.29416L10.6017 8.36112L10.5165 8.42904L10.4322 8.4976L10.3487 8.56696L10.2658 8.63728L10.184 8.70808L10.1027 8.77984L10.0222 8.85232L9.94262 8.92544L9.8639 8.99928L9.78574 9.074L9.7087 9.1492L9.63238 9.2252L9.55678 9.302L9.48214 9.37936L9.4083 9.45752L9.33534 9.53624L9.26326 9.6156L9.19198 9.69568L9.1215 9.77648L9.05222 9.85768L8.98358 9.93968L8.91582 10.0223L8.84902 10.1054L8.78318 10.1891L8.71806 10.2736L8.65398 10.3585L8.59078 10.444L8.52854 10.5301L8.46718 10.6167L8.40686 10.7038L8.34742 10.7914L8.28886 10.8797L8.23126 10.9684L8.1747 11.0575L8.1191 11.1472L8.06438 11.2375L8.01062 11.3281L7.9579 11.4192L7.90606 11.5108L7.85534 11.6026L7.8055 11.6951L7.75654 11.7881L7.70878 11.8812L7.6619 11.975L7.61606 12.069L7.57118 12.1634L7.52734 12.2582L7.48446 12.3534L7.44262 12.4489L7.40174 12.5447L7.36198 12.6409L7.32318 12.7374L7.28534 12.8342L7.24854 12.9314L7.21286 13.0287L7.17806 13.1265L7.14446 13.2243L7.11174 13.3226L7.08014 13.421L7.0495 13.5198L7.01998 13.6186L6.99142 13.7178L6.96398 13.817L6.93751 13.9166L6.9121 14.0163L6.88774 14.1162L6.86443 14.2163L6.84215 14.3165L6.82091 14.4169L6.80074 14.5174L6.7816 14.6179L6.7635 14.7187L6.74647 14.8195L6.73046 14.9205L6.71553 15.0214L6.70161 15.1225L6.68877 15.2236L6.67696 15.3248L6.6662 15.426L6.65649 15.5273L6.64782 15.6286L6.64021 15.7298L6.63363 15.8311L6.62809 15.9324L6.62361 16.0336L6.62017 16.1348L6.61776 16.2359L6.6164 16.337L6.61607 16.4382L6.61678 16.5391L6.61853 16.64L6.62132 16.7408L6.62513 16.8414L6.62997 16.9421L6.63585 17.0426L6.64274 17.1428L6.65067 17.243L6.65961 17.343L6.66958 17.4429L6.68056 17.5426L6.69256 17.6421L6.70557 17.7414L6.71959 17.8405L6.73462 17.9394L6.75065 18.038L6.76768 18.1365L6.78571 18.2347L6.80473 18.3326L6.82474 18.4303L6.84573 18.5277L6.86773 18.6249L6.89067 18.7216L6.91462 18.8182L6.93953 18.9144L6.96542 19.0103L6.99222 19.1058L7.02006 19.2011L7.04878 19.296L7.07854 19.3906L7.10918 19.4848L7.14078 19.5786L7.17334 19.6719L7.20678 19.765L7.24118 19.8576L7.27654 19.9498L7.31278 20.0416L7.3499 20.133L7.38798 20.2239L7.42694 20.3144L7.46686 20.4044L7.50758 20.494L7.54926 20.583L7.59182 20.6717L7.63518 20.7598L7.6795 20.8474L7.72462 20.9346L7.77062 21.0213L7.8175 21.1074L7.86518 21.193L7.91374 21.278L7.9631 21.3625L8.01334 21.4464L8.06438 21.5298L8.11622 21.6126L8.16886 21.6949L8.22238 21.7766L8.27654 21.8576L8.33166 21.9382L8.38742 22.018L8.44406 22.0973L8.50142 22.1759L8.55958 22.2539L8.61846 22.3313L8.67814 22.4081L8.73846 22.4842L8.79958 22.5596L8.86142 22.6344L8.92398 22.7086L8.98726 22.7819L9.05126 22.8548L9.1159 22.9268L9.18126 22.9982L9.24726 23.0689L9.31398 23.1389L9.38134 23.2082L9.44942 23.2767L9.51806 23.3446L9.58742 23.4117L9.65742 23.4781L9.7279 23.5437L9.79918 23.6086L9.87094 23.6727L9.94334 23.7361L10.0164 23.7987L10.09 23.8606L10.1641 23.9217L10.2389 23.9819L10.3141 24.0414L10.39 24.1002L10.4664 24.1582L10.5433 24.2153L10.6207 24.2716L10.6986 24.3271L10.7771 24.3818L10.8561 24.4358L10.9356 24.4889L11.0155 24.5411L11.0959 24.5926L11.1768 24.6432L11.2581 24.693L11.3398 24.7419L11.4221 24.79L11.5046 24.8372L11.5877 24.8836L11.6711 24.9291L11.755 24.9738L11.8393 25.0177L11.9238 25.0606L12.0089 25.1027L12.0943 25.1439L12.18 25.1843L12.266 25.2238L12.3525 25.2624L12.4391 25.3001L12.5261 25.3369L12.6135 25.3729L12.7012 25.4079L12.789 25.4421L12.8773 25.4754L12.9657 25.5078L13.0545 25.5393L13.1434 25.5698L13.2327 25.5996L13.3221 25.6283L13.4118 25.6562L13.5017 25.6832L13.5918 25.7093L13.6821 25.7345L13.7725 25.7587L13.8632 25.7822L13.954 25.8046L14.0449 25.8261L14.1361 25.8467L14.2273 25.8665L14.3187 25.8853L14.4101 25.9031L14.5018 25.9201L14.5934 25.9362L14.6853 25.9514L14.7771 25.9655L14.869 25.9789L14.961 25.9913L15.053 26.0028L15.1451 26.0134L15.2372 26.023L15.3293 26.0318L15.4215 26.0396L15.5137 26.0465L15.6058 26.0526L15.6979 26.0576L15.79 26.0618L15.8821 26.0651L15.9741 26.0675L16.0661 26.069L16.158 26.0695L16.2498 26.0692L16.3416 26.0679L16.4333 26.0658L16.5248 26.0628L16.6163 26.0589L16.7076 26.054L16.7988 26.0483L16.8898 26.0417L16.9808 26.0342L17.0715 26.0258L17.1621 26.0165L17.2526 26.0063L17.3429 25.9953L17.4329 25.9834L17.5228 25.9706L17.6125 25.957L17.7019 25.9424L17.791 25.927L17.8801 25.9107L17.9688 25.8936L18.0573 25.8757L18.1456 25.8568L18.2334 25.8371L18.3211 25.8166L18.4085 25.7952L18.4956 25.773L18.5824 25.75L18.6689 25.7261L18.755 25.7014L18.8409 25.6758L18.9263 25.6495L19.0114 25.6223L19.0963 25.5943L19.1807 25.5655L19.2648 25.5359L19.3485 25.5055L19.4317 25.4743L19.5146 25.4423L19.5971 25.4095L19.6793 25.3759L19.7609 25.3416L19.8421 25.3065L19.923 25.2706L20.0033 25.234L20.0833 25.1966L20.1629 25.1584L20.2417 25.1196L20.3205 25.0798L20.3985 25.0395L20.4761 24.9983L20.5531 24.9566L20.6297 24.914L20.7059 24.8707L20.7814 24.8267L20.8565 24.782L20.9311 24.7366L21.005 24.6906L21.0786 24.6438L21.1514 24.5964L21.2238 24.5482L21.2957 24.4994L21.3669 24.4499L21.4375 24.3999L21.5077 24.349L21.5772 24.2978L21.6461 24.2457L21.7145 24.193L21.7821 24.1398L21.8493 24.0858L21.9159 24.0312L21.9816 23.9762L22.047 23.9202L22.1116 23.864L22.1755 23.8072L22.239 23.7495L22.3016 23.6916L22.3637 23.633L22.4251 23.5738L22.4857 23.5141L22.5458 23.4538L22.6053 23.393L22.664 23.3316L22.7219 23.2698L22.7793 23.2074L22.836 23.1445L22.8918 23.0812L22.9472 23.0172L23.0017 22.9529L23.0554 22.8881L23.1086 22.8226L23.1609 22.757L23.2126 22.6907L23.2636 22.6241L23.3138 22.5569L23.3633 22.4894L23.4119 22.4215L23.46 22.353L23.5072 22.2842L23.5537 22.215L23.5995 22.1454L23.6443 22.0755L23.6886 22.0051L23.7321 21.9343L23.7748 21.8633L23.8166 21.7918L23.8579 21.7199L23.8981 21.648L23.9378 21.5754L23.9766 21.5026L24.0145 21.4296L24.0519 21.356L24.0882 21.2826L24.124 21.2083L24.1587 21.1343L24.1929 21.0595L24.2261 20.9849L24.2586 20.9096L24.2903 20.8344L24.3211 20.7589L24.3512 20.683L24.3805 20.607L24.4088 20.5309L24.4365 20.4543L24.4633 20.3777L24.4893 20.3009L24.5145 20.2238L24.5389 20.1466L24.5625 20.0692L24.5852 19.9918L24.6071 19.914L24.6281 19.8362L24.6485 19.7582L24.6679 19.6802L24.6865 19.6021L24.7044 19.5236L24.7213 19.4452L24.7376 19.3667L24.7529 19.2882L24.7674 19.2096L24.7811 19.1306L24.794 19.052L24.8061 18.9731L24.8173 18.8942L24.8277 18.8154L24.8373 18.7364L24.8461 18.6572L24.854 18.5786L24.8612 18.4993L24.8675 18.4203L24.8729 18.3415L24.8777 18.2625L24.8815 18.1836L24.8845 18.1048L24.8868 18.0258L24.8881 17.9472L24.8888 17.8683L24.8885 17.7897L24.8876 17.711L24.8857 17.6327L24.8831 17.5542L24.8797 17.4759L24.8754 17.3979L24.8704 17.3197L24.8645 17.2417L24.858 17.1641L24.8505 17.0862L24.8423 17.0089L24.8333 16.9314L24.8235 16.8542L24.8129 16.7772L24.8016 16.7002L24.7894 16.6236L24.7765 16.5472L24.7629 16.471L24.7484 16.395L24.7331 16.3189L24.7171 16.2434L24.7004 16.1681L24.6829 16.0929L24.6645 16.0178L24.6456 15.9434L24.6257 15.8688L24.6053 15.7948L24.584 15.7209L24.562 15.6474L24.5393 15.5741L24.5157 15.501L24.4916 15.4285L24.4667 15.3562L24.4409 15.2839L24.4147 15.2123L24.3876 15.1409L24.3598 15.0699L24.3313 14.9991L24.3021 14.9286L24.2723 14.8588L24.2417 14.789L24.2105 14.7198L24.1785 14.651L24.1459 14.5824L24.1125 14.5142L24.0787 14.4466L24.044 14.3791L24.0088 14.3123L23.9729 14.2459L23.9362 14.1796L23.8991 14.1141L23.8612 14.0488L23.8227 13.9841L23.7835 13.9196L23.7439 13.8558L23.7034 13.7922L23.6625 13.7294L23.6209 13.6669L23.5788 13.6049L23.5359 13.5432L23.4925 13.4822L23.4487 13.4217L23.4041 13.3614L23.359 13.3019L23.3133 13.2428L23.2672 13.1843L23.2203 13.1262L23.1729 13.0686L23.125 13.0116L23.0766 12.955L23.0277 12.8992L22.9781 12.8437L22.9282 12.7889L22.8777 12.7345L22.8268 12.6809L22.7751 12.6275L22.7232 12.575L22.6705 12.5227L22.6176 12.4713L22.5642 12.4204L22.5103 12.37L22.4558 12.3202L22.4009 12.271L22.3457 12.2225L22.2897 12.1743L22.2338 12.1271L22.1771 12.0802L22.1201 12.034L22.0626 11.9885L22.0047 11.9434L21.9465 11.899L21.888 11.8554L21.8288 11.8122L21.7692 11.7696L21.7096 11.7279L21.6492 11.6866L21.5889 11.6462L21.528 11.6062L21.4667 11.5668L21.405 11.5281L21.3433 11.4902L21.2809 11.4527L21.2184 11.4161L21.1553 11.3799L21.0924 11.3446L21.0289 11.3099L20.965 11.2758L20.9009 11.2423L20.8367 11.2097L20.7721 11.1775L20.7071 11.1461L20.6421 11.1154L20.5769 11.0854L20.5109 11.0558L20.4453 11.0272L20.3793 10.9992L20.3129 10.9718L20.2464 10.9451L20.1798 10.9192L20.1129 10.8939L20.0457 10.8692L19.9785 10.8454L19.911 10.8221L19.8433 10.7995L19.7757 10.7777L19.7078 10.7566L19.6399 10.7361L19.5714 10.7162L19.5032 10.6972L19.4348 10.6788L19.3662 10.6611L19.2976 10.6441L19.2286 10.6278L19.1598 10.6122L19.091 10.5973L19.0219 10.583L18.9526 10.5694L18.8837 10.5567L18.8144 10.5446L18.7452 10.5331L18.6757 10.5223L18.6065 10.5123L18.5369 10.5029L18.4677 10.4943L18.3982 10.4863L18.3288 10.479L18.2594 10.4725L18.1899 10.4666L18.1207 10.4614L18.0511 10.4569L17.9818 10.453L17.9127 10.4499L17.8431 10.4474L17.7741 10.4457L17.7049 10.4446L17.6359 10.4442L17.5887 10.4444L17.6245 13.4647L17.6458 13.4648L17.6855 13.4654L17.7253 13.4663L17.7651 13.4676L17.8049 13.4694L17.8449 13.4716L17.8848 13.4742L17.9248 13.4772L17.9648 13.4806L18.0049 13.4845L18.0449 13.4887L18.085 13.4934L18.1252 13.4985L18.1653 13.504L18.2054 13.5099L18.2456 13.5163L18.2857 13.5231L18.3258 13.5303L18.366 13.538L18.4061 13.546L18.4461 13.5546L18.4862 13.5634L18.5263 13.5728L18.5662 13.5826L18.6062 13.5927L18.6461 13.6034L18.686 13.6144L18.7258 13.6258L18.7656 13.6378L18.8053 13.6501L18.8449 13.6629L18.8845 13.6761L18.9239 13.6897L18.9633 13.7037L19.0026 13.7182L19.0418 13.733L19.0809 13.7483L19.12 13.7641L19.1589 13.7802L19.1977 13.7968L19.2364 13.8138L19.2749 13.8313L19.3134 13.8491L19.3517 13.8674L19.3899 13.8861L19.428 13.9052L19.4658 13.9248L19.5036 13.9447L19.5412 13.9651L19.5786 13.9859L19.6159 14.0071L19.653 14.0287L19.6899 14.0507L19.7267 14.0732L19.7633 14.0961L19.7997 14.1194L19.8358 14.143L19.8718 14.167L19.9077 14.1916L19.9433 14.2165L19.9786 14.2418L20.0138 14.2674L20.0488 14.2935L20.0835 14.32L20.118 14.3469L20.1523 14.3742L20.1863 14.4018L20.2201 14.4298L20.2537 14.4583L20.2869 14.4871L20.32 14.5163L20.3528 14.5459L20.3853 14.5759L20.4175 14.6062L20.4494 14.637L20.4812 14.6681L20.5125 14.6995L20.5437 14.7314L20.5745 14.7635L20.605 14.7961L20.6353 14.829L20.6652 14.8623L20.6949 14.8959L20.7241 14.9299L20.7531 14.9642L20.7818 14.9989L20.8101 15.0339L20.8381 15.0693L20.8658 15.105L20.8932 15.141L20.9202 15.1774L20.9469 15.2141L20.9731 15.251L20.9991 15.2884L21.0247 15.3261L21.0499 15.3641L21.0748 15.4023L21.0993 15.441L21.1234 15.4798L21.1472 15.519L21.1705 15.5586L21.1935 15.5983L21.2161 15.6384L21.2383 15.6788L21.2601 15.7194L21.2816 15.7604L21.3025 15.8016L21.3232 15.843L21.3433 15.8848L21.3631 15.9269L21.3825 15.9691L21.4014 16.0117L21.42 16.0545L21.4381 16.0975L21.4557 16.1408L21.4729 16.1843L21.4897 16.2281L21.5061 16.2721L21.5221 16.3163L21.5375 16.3608L21.5525 16.4054L21.5671 16.4503L21.5812 16.4954L21.5949 16.5407L21.6081 16.5862L21.6208 16.632L21.6331 16.6778L21.6449 16.7239L21.6562 16.7702L21.6671 16.8167L21.6775 16.8633L21.6874 16.9102L21.6969 16.9571L21.7057 17.0042L21.7142 17.0515L21.7222 17.099L21.7297 17.1465L21.7367 17.1942L21.7432 17.2421L21.7492 17.2901L21.7547 17.3382L21.7597 17.3865L21.7642 17.4348L21.7682 17.4833L21.7717 17.5319L21.7747 17.5806L21.7772 17.6294L21.7791 17.6782L21.7806 17.7272L21.7815 17.7762L21.782 17.8254L21.7818 17.8745L21.7813 17.9238L21.7801 17.9731L21.7785 18.0225L21.7763 18.0719L21.7736 18.1214L21.7704 18.1709L21.7666 18.2204L21.7623 18.27L21.7575 18.3196L21.7522 18.3692L21.7463 18.4188L21.7399 18.4685L21.733 18.5182L21.7256 18.5678L21.7176 18.6174L21.709 18.667L21.7 18.7166L21.6904 18.7662L21.6803 18.8157L21.6696 18.8652L21.6584 18.9146L21.6467 18.9641L21.6344 19.0134L21.6216 19.0628L21.6083 19.112L21.5944 19.1612L21.58 19.2102L21.565 19.2593L21.5496 19.3082L21.5336 19.357L21.517 19.4058L21.5 19.4545L21.4823 19.503L21.4641 19.5514L21.4455 19.5997L21.4263 19.6479L21.4065 19.6959L21.3863 19.7438L21.3655 19.7916L21.3441 19.8393L21.3223 19.8867L21.2999 19.934L21.2769 19.9812L21.2536 20.0282L21.2296 20.075L21.2051 20.1216L21.1801 20.168L21.1545 20.2142L21.1285 20.2603L21.102 20.3062L21.0749 20.3518L21.0473 20.3972L21.0192 20.4425L20.9906 20.4874L20.9615 20.5322L20.9318 20.5767L20.9017 20.621L20.8711 20.665L20.84 20.7088L20.8083 20.7523L20.7762 20.7956L20.7436 20.8386L20.7105 20.8813L20.6769 20.9238L20.6428 20.9659L20.6082 21.0078L20.5732 21.0494L20.5377 21.0906L20.5016 21.1316L20.4651 21.1722L20.4281 21.2126L20.3907 21.2526L20.3529 21.2923L20.3145 21.3318L20.2757 21.3708L20.2364 21.4094L20.1967 21.4478L20.1565 21.4858L20.1158 21.5234L20.0748 21.5607L20.0333 21.5977L19.9913 21.6342L19.9489 21.6704L19.9061 21.7062L19.8629 21.7416L19.8192 21.7766L19.7751 21.8112L19.7306 21.8454L19.6857 21.8793L19.6404 21.9127L19.5947 21.9457L19.5485 21.9782L19.5021 22.0105L19.4551 22.0422L19.4078 22.0735L19.3601 22.1043L19.3121 22.1348L19.2636 22.1648L19.2148 22.1943L19.1656 22.2234L19.1161 22.252L19.0661 22.2802L19.0158 22.3078L18.9653 22.3351L18.9143 22.3618L18.863 22.3882L18.8113 22.4139L18.7594 22.4393L18.7071 22.4641L18.6545 22.4884L18.6016 22.5122L18.5483 22.5355L18.4948 22.5584L18.4409 22.5807L18.3868 22.6025L18.3323 22.6238L18.2776 22.6446L18.2225 22.6648L18.1673 22.6846L18.1117 22.7038L18.0559 22.7224L17.9998 22.7406L17.9435 22.7581L17.8869 22.7751L17.8301 22.7917L17.773 22.8076L17.7157 22.823L17.6582 22.8378L17.6005 22.8522L17.5425 22.8658L17.4843 22.879L17.4259 22.8916L17.3673 22.9037L17.3085 22.9151L17.2496 22.926L17.1905 22.9363L17.1311 22.9461L17.0717 22.9552L17.012 22.9638L16.9522 22.9718L16.8922 22.9792L16.8321 22.986L16.7719 22.9922L16.7115 22.9978L16.651 23.0028L16.5904 23.0073L16.5296 23.011L16.4688 23.0143L16.4078 23.017L16.3468 23.019L16.2856 23.0203L16.2244 23.0211L16.1631 23.0214L16.1017 23.021L16.0403 23.0199L15.9788 23.0182L15.9173 23.016L15.8557 23.0131L15.794 23.0096L15.7323 23.0055L15.6706 23.0008L15.6089 22.9954L15.5472 22.9894L15.4855 22.9829L15.4237 22.9756L15.3621 22.9678L15.3003 22.9593L15.2386 22.9502L15.1769 22.9405L15.1153 22.9302L15.0537 22.9192L14.9922 22.9076L14.9307 22.8954L14.8693 22.8826L14.8079 22.8691L14.7466 22.855L14.6854 22.8402L14.6242 22.825L14.5632 22.809L14.5023 22.7923L14.4414 22.7751L14.3808 22.7573L14.3201 22.7388L14.2597 22.7197L14.1993 22.7L14.1391 22.6797L14.0791 22.6587L14.0192 22.6371L13.9594 22.6149L13.8999 22.5921L13.8405 22.5686L13.7813 22.5446L13.7222 22.5199L13.6634 22.4946L13.6048 22.4687L13.5463 22.4422L13.4881 22.4151L13.4301 22.3874L13.3723 22.359L13.3148 22.3301L13.2575 22.3006L13.2005 22.2704L13.1437 22.2397L13.0871 22.2083L13.0309 22.1764L12.9748 22.1438L12.9191 22.1107L12.8637 22.077L12.8085 22.0427L12.7537 22.0078L12.6991 21.9724L12.6449 21.9363L12.5909 21.8997L12.5374 21.8625L12.4841 21.8247L12.4312 21.7864L12.3786 21.7474L12.3264 21.708L12.2745 21.668L12.223 21.6274L12.1719 21.5862L12.1211 21.5446L12.0707 21.5023L12.0207 21.4595L11.9711 21.4162L11.9219 21.3723L11.8731 21.3279L11.8247 21.283L11.7767 21.2375L11.7292 21.1915L11.682 21.145L11.6353 21.098L11.5891 21.0505L11.5433 21.0024L11.4979 20.9539L11.453 20.9048L11.4086 20.8553L11.3646 20.8053L11.3212 20.7547L11.2781 20.7038L11.2356 20.6522L11.1936 20.6002L11.1521 20.5478L11.111 20.495L11.0705 20.4416L11.0305 20.3878L10.991 20.3335L10.9521 20.2788L10.9136 20.2236L10.8757 20.168L10.8383 20.112L10.8015 20.0555L10.7653 19.9986L10.7295 19.9414L10.6944 19.8837L10.6597 19.8255L10.6257 19.767L10.5923 19.7081L10.5594 19.6488L10.5271 19.5891L10.4954 19.529L10.4643 19.4686L10.4337 19.4078L10.4038 19.3466L10.3745 19.285L10.3458 19.2232L10.3177 19.161L10.2903 19.0984L10.2634 19.0354L10.2372 18.9722L10.2116 18.9086L10.1866 18.8448L10.1623 18.7806L10.1387 18.7161L10.1157 18.6513L10.0933 18.5862L10.0715 18.5209L10.0505 18.4552L10.0301 18.3893L10.0103 18.3231L9.99118 18.2566L9.97278 18.1899L9.9551 18.123L9.93798 18.0558L9.92166 17.9883L9.90598 17.9207L9.89094 17.8528L9.87662 17.7847L9.86302 17.7164L9.85006 17.6479L9.83782 17.5792L9.8263 17.5103L9.8155 17.4413L9.80534 17.372L9.7959 17.3026L9.78726 17.233L9.77926 17.1634L9.77198 17.0934L9.76542 17.0234L9.75958 16.9533L9.75446 16.883L9.75006 16.8126L9.74638 16.7422L9.74342 16.6716L9.74118 16.6009L9.73974 16.5301L9.73902 16.4593L9.73894 16.3883L9.73966 16.3173L9.74118 16.2462L9.74334 16.1751L9.7463 16.1039L9.74998 16.0327L9.75438 15.9615L9.7595 15.8902L9.76542 15.819L9.77206 15.7477L9.77942 15.6764L9.78758 15.6051L9.79646 15.5338L9.80606 15.4626L9.81646 15.3914L9.82758 15.3202L9.8395 15.2491L9.85206 15.178L9.86542 15.107L9.87958 15.036L9.89446 14.9651L9.91006 14.8943L9.92638 14.8236L9.9435 14.753L9.96134 14.6825L9.97998 14.6121L9.99934 14.5418L10.0194 14.4717L10.0402 14.4016L10.0618 14.3318L10.0841 14.262L10.1072 14.1924L10.131 14.123L10.1556 14.0538L10.1809 13.9847L10.2069 13.9158L10.2337 13.8472L10.2612 13.7787L10.2894 13.7104L10.3184 13.6424L10.3481 13.5746L10.3785 13.507L10.4097 13.4396L10.4416 13.3725L10.4741 13.3057L10.5075 13.239L10.5415 13.1727L10.5763 13.1067L10.6117 13.041L10.648 12.9755L10.6849 12.9103L10.7225 12.8454L10.7608 12.781L10.7998 12.7167L10.8395 12.6528L10.88 12.5893L10.9211 12.526L10.9629 12.4631L11.0053 12.4006L11.0485 12.3385L11.0924 12.2767L11.1369 12.2154L11.1821 12.1543L11.228 12.0937L11.2745 12.0335L11.3217 11.9737L11.3697 11.9143L11.4182 11.8553L11.4673 11.7968L11.5172 11.7386L11.5677 11.681L11.6188 11.6238L11.6705 11.567L11.7229 11.5107L11.776 11.4549L11.8297 11.3995L11.8839 11.3446L11.9388 11.2902L11.9943 11.2363L12.0504 11.183L12.1071 11.1301L12.1644 11.0777L12.2222 11.0258L12.2807 10.9745L12.3398 10.9238L12.3994 10.8734L12.4597 10.8238L12.5204 10.7746L12.5817 10.726L12.6436 10.678L12.7061 10.6306L12.769 10.5837L12.8325 10.5374L12.8966 10.4917L12.9612 10.4466L13.0263 10.402L13.092 10.3581L13.1581 10.3148L13.2247 10.2722L13.2919 10.2301L13.3595 10.1886L13.4277 10.1478L13.4962 10.1077L13.5653 10.0682L13.6349 10.0293L13.7049 9.99104L13.7753 9.95352L13.8462 9.91664L13.9176 9.8804L13.9893 9.84488L14.0616 9.81L14.1342 9.77584L14.2073 9.74232L14.2807 9.70952L14.3545 9.67744L14.4289 9.646L14.5035 9.61528L14.5785 9.58536L14.6539 9.55608L14.7297 9.52752L14.8057 9.49968L14.8822 9.47264L14.9591 9.44624L15.0362 9.42064L15.1137 9.39576L15.1915 9.3716L15.2697 9.34824L15.3481 9.3256L15.4268 9.30376L15.5058 9.28264L15.5851 9.26224L15.6647 9.24264L15.7445 9.22384L15.8247 9.20584L15.905 9.18856L15.9857 9.17208L16.0665 9.1564L16.107 9.14888ZM17.1005 14.9571L16.1785 15.1774L16.1243 10.6098L16.0809 10.6196L16.0154 10.635L15.9501 10.6511L15.8852 10.6678L15.8204 10.685L15.756 10.703L15.6916 10.7216L15.6278 10.7406L15.5639 10.7605L15.5008 10.7807L15.4375 10.8018L15.3746 10.8234L15.3121 10.8455L15.2497 10.8682L15.188 10.8915L15.1263 10.9155L15.0649 10.94L15.004 10.965L14.9431 10.9908L14.883 11.0169L14.8229 11.0438L14.7634 11.071L14.704 11.099L14.6451 11.1274L14.5864 11.1565L14.5283 11.186L14.4705 11.2161L14.413 11.2467L14.356 11.2778L14.2993 11.3095L14.2429 11.3418L14.1873 11.3744L14.1315 11.4078L14.0765 11.4414L14.0219 11.4757L13.9677 11.5104L13.9137 11.5457L13.8604 11.5814L13.8074 11.6177L13.7549 11.6543L13.7029 11.6914L13.6511 11.7291L13.5999 11.7673L13.5492 11.8058L13.4989 11.8449L13.4491 11.8842L13.3998 11.9242L13.3509 11.9646L13.3024 12.0054L13.2545 12.0466L13.2071 12.0882L13.1601 12.1302L13.1137 12.1727L13.0677 12.2157L13.0222 12.259L12.9773 12.3026L12.9327 12.3467L12.8888 12.3911L12.8453 12.436L12.8025 12.4811L12.7599 12.5269L12.7181 12.5727L12.6767 12.619L12.6358 12.6658L12.5956 12.7126L12.5557 12.7601L12.5166 12.8076L12.4778 12.8558L12.4397 12.904L12.4021 12.9527L12.365 13.0018L12.3285 13.051L12.2925 13.1005L12.2572 13.1503L12.2223 13.2006L12.188 13.251L12.1543 13.3018L12.1212 13.3526L12.0886 13.4038L12.0565 13.4554L12.0252 13.5071L11.9942 13.5593L11.964 13.6114L11.9342 13.6639L11.905 13.7166L11.8765 13.7695L11.8485 13.8226L11.8212 13.876L11.7943 13.9297L11.7681 13.9833L11.7425 14.0374L11.7174 14.0914L11.693 14.1458L11.6691 14.2002L11.6458 14.255L11.6232 14.3097L11.6011 14.3647L11.5797 14.4198L11.5587 14.4751L11.5385 14.5304L11.5188 14.586L11.4997 14.6417L11.4812 14.6974L11.4633 14.7533L11.446 14.8094L11.4293 14.8654L11.4133 14.9215L11.3977 14.9778L11.3828 15.0342L11.3685 15.0906L11.3549 15.1471L11.3417 15.2037L11.3293 15.2603L11.3174 15.317L11.3061 15.3737L11.2954 15.4304L11.2853 15.4873L11.2759 15.544L11.267 15.6008L11.2587 15.6578L11.251 15.7145L11.244 15.7714L11.2375 15.8282L11.2316 15.885L11.2263 15.942L11.2216 15.9987L11.2175 16.0555L11.214 16.1123L11.211 16.169L11.2087 16.2256L11.2069 16.2822L11.2058 16.3388L11.2052 16.3953L11.2053 16.4517L11.2058 16.508L11.207 16.5643L11.2088 16.6205L11.2111 16.6766L11.214 16.7326L11.2175 16.7884L11.2216 16.8442L11.2262 16.8998L11.2314 16.9554L11.2372 17.0109L11.2435 17.066L11.2504 17.1213L11.2578 17.1762L11.2659 17.2311L11.2745 17.2858L11.2836 17.3403L11.2933 17.3948L11.3035 17.449L11.3143 17.503L11.3256 17.5568L11.3375 17.6106L11.3499 17.664L11.3629 17.7174L11.3763 17.7703L11.3904 17.8234L11.4049 17.8759L11.4199 17.9285L11.4355 17.9806L11.4516 18.0327L11.4682 18.0845L11.4853 18.1359L11.503 18.1874L11.5212 18.2384L11.5398 18.2891L11.5589 18.3398L11.5786 18.3901L11.5988 18.4401L11.6194 18.4898L11.6405 18.5393L11.6621 18.5886L11.6842 18.6375L11.7068 18.6862L11.7298 18.7345L11.7533 18.7825L11.7773 18.8304L11.8017 18.8778L11.8265 18.9249L11.8519 18.9718L11.8777 19.0182L11.904 19.0645L11.9306 19.1104L11.9577 19.1558L11.9853 19.2011L12.0133 19.246L12.0417 19.2905L12.0705 19.3347L12.0997 19.3786L12.1294 19.4222L12.1594 19.4651L12.1899 19.508L12.2208 19.5504L12.252 19.5924L12.2837 19.6342L12.3157 19.6754L12.3481 19.7163L12.3809 19.7569L12.4141 19.7971L12.4476 19.8368L12.4816 19.8762L12.5158 19.9153L12.5504 19.9538L12.5855 19.9921L12.6207 20.0298L12.6564 20.0673L12.6924 20.1042L12.7286 20.1408L12.7653 20.177L12.8023 20.2127L12.8396 20.2481L12.8772 20.283L12.9151 20.3174L12.9533 20.3515L12.9918 20.3851L13.0306 20.4183L13.0697 20.4511L13.109 20.4834L13.1487 20.5154L13.1887 20.5468L13.2288 20.5778L13.2693 20.6083L13.31 20.6385L13.3509 20.6682L13.3921 20.6974L13.4336 20.7262L13.4753 20.7545L13.5172 20.7823L13.5593 20.8097L13.6016 20.8366L13.6443 20.8632L13.687 20.8891L13.73 20.9147L13.7733 20.9398L13.8165 20.9644L13.8601 20.9886L13.904 21.0123L13.9479 21.0355L13.992 21.0582L14.0362 21.0805L14.0808 21.1023L14.1253 21.1236L14.1701 21.1445L14.215 21.1649L14.26 21.1847L14.3053 21.2042L14.3506 21.2231L14.396 21.2416L14.4416 21.2596L14.4873 21.277L14.5332 21.2941L14.5789 21.3106L14.6251 21.3267L14.6711 21.3422L14.7173 21.3574L14.7636 21.372L14.81 21.3862L14.8564 21.3998L14.9029 21.413L14.9495 21.4256L14.9961 21.4378L15.0428 21.4495L15.0895 21.4608L15.1362 21.4715L15.183 21.4818L15.2299 21.4916L15.2768 21.5009L15.3237 21.5098L15.3705 21.5181L15.4175 21.526L15.4645 21.5334L15.5114 21.5403L15.5582 21.5467L15.6052 21.5526L15.6521 21.5582L15.699 21.5632L15.7459 21.5677L15.7928 21.5718L15.8396 21.5754L15.8863 21.5785L15.9331 21.5811L15.9797 21.5833L16.0263 21.585L16.073 21.5862L16.1194 21.587L16.1658 21.5874L16.2122 21.5872L16.2585 21.5866L16.3048 21.5855L16.3509 21.584L16.3969 21.5821L16.4428 21.5796L16.4888 21.5767L16.5344 21.5734L16.5801 21.5696L16.6255 21.5654L16.6709 21.5607L16.7162 21.5555L16.7613 21.55L16.8064 21.544L16.8512 21.5375L16.8958 21.5306L16.9405 21.5234L16.9849 21.5156L17.0292 21.5074L17.0733 21.4988L17.1173 21.4898L17.161 21.4803L17.2045 21.4705L17.2481 21.4602L17.2913 21.4494L17.3344 21.4384L17.3773 21.4269L17.4199 21.415L17.4625 21.4026L17.5048 21.3898L17.5467 21.3767L17.5888 21.3631L17.6304 21.3492L17.6718 21.335L17.713 21.3202L17.754 21.3051L17.7949 21.2896L17.8354 21.2738L17.8757 21.2575L17.9157 21.241L17.9556 21.2239L17.9953 21.2066L18.0345 21.1889L18.0737 21.1708L18.1125 21.1524L18.1509 21.1336L18.1893 21.1145L18.2273 21.095L18.2651 21.0752L18.3026 21.055L18.3398 21.0345L18.3767 21.0137L18.4134 20.9925L18.4498 20.971L18.4858 20.9491L18.5216 20.927L18.5571 20.9045L18.5923 20.8818L18.6273 20.8586L18.6618 20.8353L18.6961 20.8115L18.7301 20.7875L18.7637 20.7633L18.7971 20.7386L18.8301 20.7138L18.8629 20.6886L18.8953 20.6631L18.9274 20.6374L18.9591 20.6114L18.9905 20.5852L19.0216 20.5586L19.0523 20.5318L19.0828 20.5048L19.1129 20.4774L19.1426 20.4499L19.1719 20.4222L19.201 20.3941L19.2297 20.3658L19.2581 20.3373L19.2861 20.3086L19.3137 20.2795L19.341 20.2504L19.3681 20.2209L19.3945 20.1914L19.4209 20.1614L19.4467 20.1314L19.4721 20.1012L19.4974 20.0706L19.5221 20.0401L19.5465 20.0092L19.5706 19.9782L19.5942 19.947L19.6176 19.9156L19.6405 19.8842L19.663 19.8523L19.6853 19.8204L19.707 19.7885L19.7285 19.7562L19.7496 19.7238L19.7701 19.6914L19.7905 19.6587L19.8104 19.6259L19.8299 19.593L19.8491 19.5599L19.8678 19.5267L19.8862 19.4934L19.9042 19.4599L19.9218 19.4265L19.939 19.3928L19.9559 19.359L19.9724 19.3252L19.9885 19.2911L20.0041 19.2571L20.0194 19.223L20.0343 19.1888L20.0489 19.1544L20.0629 19.1201L20.0768 19.0854L20.0901 19.0511L20.1031 19.0162L20.1156 18.9819L20.1278 18.947L20.1397 18.9122L20.151 18.8774L20.1621 18.8426L20.1727 18.8078L20.183 18.7726L20.1928 18.7378L20.2024 18.7026L20.2114 18.6678L20.2201 18.6326L20.2285 18.5974L20.2364 18.5625L20.2439 18.5276L20.2511 18.4922L20.2579 18.4573L20.2643 18.422L20.2703 18.3871L20.276 18.3521L20.2813 18.317L20.2861 18.2818L20.2906 18.2468L20.2948 18.2119L20.2985 18.1771L20.3019 18.142L20.3049 18.1072L20.3076 18.0723L20.3098 18.0375L20.3117 18.0028L20.3133 17.9682L20.3144 17.9337L20.3152 17.899L20.3157 17.8643L20.3157 17.83L20.3154 17.7957L20.3148 17.7614L20.3137 17.7273L20.3124 17.693L20.3106 17.6593L20.3085 17.6249L20.3061 17.5914L20.3033 17.5577L20.3002 17.5238L20.2967 17.4902L20.2929 17.457L20.2887 17.4234L20.2842 17.3904L20.2793 17.3572L20.2742 17.3245L20.2686 17.2914L20.2628 17.2586L20.2566 17.2262L20.2501 17.1938L20.2433 17.1613L20.2361 17.1292L20.2286 17.0971L20.2208 17.0653L20.2127 17.0337L20.2041 17.0018L20.1955 16.9706L20.1864 16.9391L20.177 16.9082L20.1673 16.8772L20.1573 16.8465L20.147 16.8158L20.1364 16.7853L20.1256 16.7552L20.1144 16.7252L20.1029 16.6951L20.0911 16.6655L20.079 16.6358L20.0668 16.6067L20.0541 16.5774L20.0413 16.5485L20.0281 16.5198L20.0146 16.4912L20.0009 16.4629L19.9869 16.4347L19.9727 16.4067L19.9582 16.379L19.9434 16.3515L19.9285 16.3242L19.9132 16.2971L19.8976 16.2702L19.8819 16.2436L19.8659 16.2172L19.8496 16.1909L19.8331 16.165L19.8164 16.1393L19.7994 16.1138L19.7822 16.0884L19.7649 16.0634L19.7472 16.0386L19.7293 16.014L19.7113 15.9897L19.6929 15.9656L19.6745 15.9418L19.6557 15.9181L19.6369 15.8948L19.6177 15.8717L19.5985 15.8488L19.5789 15.8262L19.5593 15.8038L19.5394 15.7818L19.5193 15.7599L19.4991 15.7382L19.4787 15.717L19.4581 15.6959L19.4373 15.675L19.4164 15.6546L19.3953 15.6343L19.3741 15.6143L19.3525 15.5945L19.331 15.575L19.3093 15.5558L19.2874 15.5369L19.2653 15.5182L19.2432 15.4998L19.2209 15.4817L19.1985 15.4638L19.1759 15.4462L19.1532 15.4289L19.1304 15.4119L19.1074 15.3951L19.0843 15.3786L19.0612 15.3625L19.0379 15.3465L19.0145 15.3309L18.991 15.3155L18.9673 15.3004L18.9437 15.2856L18.9198 15.271L18.896 15.2568L18.8721 15.2429L18.848 15.2292L18.8237 15.2158L18.7996 15.2026L18.7753 15.1898L18.7509 15.1772L18.7266 15.165L18.702 15.1529L18.6775 15.1412L18.6529 15.1298L18.6282 15.1186L18.6035 15.1078L18.5786 15.0971L18.554 15.0869L18.529 15.0769L18.5041 15.0671L18.4792 15.0577L18.4542 15.0485L18.4293 15.0396L18.4042 15.031L18.3792 15.0226L18.3542 15.0146L18.3291 15.0067L18.304 14.9992L18.279 14.992L18.2537 14.985L18.2288 14.9784L18.2037 14.972L18.1785 14.9658L18.1534 14.96L18.1284 14.9544L18.1033 14.9491L18.0782 14.9441L18.0533 14.9393L18.0283 14.9348L18.0032 14.9306L17.9784 14.9266L17.9533 14.923L17.9285 14.9195L17.9036 14.9163L17.8788 14.9134L17.8541 14.9108L17.8293 14.9085L17.8047 14.9063L17.7801 14.9045L17.7555 14.9029L17.7309 14.9015L17.7065 14.9005L17.6822 14.8997L17.6578 14.899L17.6336 14.8987L17.6093 14.8986L17.5853 14.8989L17.5612 14.8993L17.5373 14.8999L17.5133 14.9009L17.4897 14.902L17.4658 14.9034L17.4423 14.905L17.4188 14.9069L17.3953 14.909L17.3721 14.9114L17.3487 14.9139L17.3257 14.9167L17.3026 14.9198L17.2797 14.923L17.2569 14.9266L17.2342 14.9302L17.2116 14.9342L17.1893 14.9383L17.1668 14.9427L17.1446 14.9473L17.1225 14.9521L17.1005 14.9571Z" fill="white"/>
</svg>
