<svg width="73" height="72" viewBox="0 0 73 72" fill="none" xmlns="http://www.w3.org/2000/svg">
<path d="M66.4007 50.7603V59.7603C66.4041 60.5958 66.2329 61.4228 65.8982 62.1883C65.5635 62.9539 65.0726 63.6411 64.4569 64.2059C63.8412 64.7707 63.1144 65.2007 62.3229 65.4684C61.5315 65.7361 60.6928 65.8355 59.8607 65.7603C50.6292 64.7572 41.7617 61.6027 33.9707 56.5503C26.7222 51.9443 20.5767 45.7988 15.9707 38.5503C10.9006 30.7239 7.74541 21.8133 6.76068 12.5403C6.68571 11.7107 6.7843 10.8746 7.05018 10.0852C7.31606 9.29576 7.74339 8.57036 8.30498 7.95515C8.86656 7.33995 9.55009 6.84842 10.3121 6.51186C11.074 6.17529 11.8977 6.00108 12.7307 6.00029H21.7307C23.1866 5.98596 24.5981 6.50153 25.702 7.45089C26.8059 8.40025 27.5269 9.71863 27.7307 11.1603C28.1105 14.0405 28.815 16.8685 29.8307 19.5903C30.2343 20.6641 30.3217 21.831 30.0824 22.9529C29.8431 24.0748 29.2873 25.1046 28.4807 25.9203L24.6707 29.7303C28.9413 37.2409 35.16 43.4596 42.6707 47.7303L46.4807 43.9203C47.2963 43.1137 48.3261 42.5578 49.448 42.3186C50.5699 42.0793 51.7369 42.1667 52.8107 42.5703C55.5325 43.5859 58.3605 44.2904 61.2407 44.6703C62.698 44.8759 64.0289 45.6099 64.9803 46.7328C65.9317 47.8556 66.4372 49.289 66.4007 50.7603Z" stroke="white" stroke-width="4" stroke-linecap="round" stroke-linejoin="round"/>
</svg>
