<svg width="67" height="67" viewBox="0 0 67 67" fill="none" xmlns="http://www.w3.org/2000/svg">
<g clip-path="url(#clip0_61_1810)">
<path d="M50.2494 22.3327H47.4577V16.7493C47.4577 9.04435 41.2043 2.79102 33.4993 2.79102C25.7943 2.79102 19.541 9.04435 19.541 16.7493V22.3327H16.7493C13.6785 22.3327 11.166 24.8452 11.166 27.916V55.8327C11.166 58.9035 13.6785 61.416 16.7493 61.416H50.2494C53.3202 61.416 55.8327 58.9035 55.8327 55.8327V27.916C55.8327 24.8452 53.3202 22.3327 50.2494 22.3327ZM33.4993 47.4577C30.4285 47.4577 27.916 44.9452 27.916 41.8744C27.916 38.8035 30.4285 36.291 33.4993 36.291C36.5702 36.291 39.0827 38.8035 39.0827 41.8744C39.0827 44.9452 36.5702 47.4577 33.4993 47.4577ZM42.1535 22.3327H24.8452V16.7493C24.8452 11.9756 28.7256 8.09518 33.4993 8.09518C38.2731 8.09518 42.1535 11.9756 42.1535 16.7493V22.3327Z" fill="white"/>
</g>
<defs>
<clipPath id="clip0_61_1810">
<rect width="67" height="67" fill="white"/>
</clipPath>
</defs>
</svg>
