<svg width="68" height="67" viewBox="0 0 68 67" fill="none" xmlns="http://www.w3.org/2000/svg">
<g clip-path="url(#clip0_61_1789)">
<path d="M51.3792 14.5151L32.2844 27.8854C26.6784 23.8702 18.9276 23.606 12.9591 27.7852C5.38977 33.0853 3.5456 43.5441 8.84569 51.1134C14.1458 58.6827 24.6046 60.5269 32.1739 55.2268C38.1424 51.0475 40.5451 43.6739 38.6894 37.0326L39.4898 36.4722L47.2658 37.8433L48.637 30.0672L56.413 31.4384L59.0912 15.7948L51.3792 14.5151ZM27.3702 48.3664C23.597 51.0084 18.3481 50.0829 15.7061 46.3097C13.064 42.5365 13.9896 37.2876 17.7628 34.6456C21.536 32.0035 26.7848 32.929 29.4269 36.7023C32.0689 40.4755 31.1434 45.7243 27.3702 48.3664Z" fill="white"/>
</g>
<defs>
<clipPath id="clip0_61_1789">
<rect width="67" height="67" fill="white" transform="translate(0.5)"/>
</clipPath>
</defs>
</svg>
