<svg width="53" height="53" viewBox="0 0 53 53" fill="none" xmlns="http://www.w3.org/2000/svg">
<path d="M26.182 24.0897C30.0668 24.0897 33.2027 20.9538 33.2027 17.069C33.2027 13.1842 30.0668 10.0482 26.182 10.0482C22.2971 10.0482 19.1612 13.1842 19.1612 17.069C19.1612 20.9538 22.2971 24.0897 26.182 24.0897ZM26.182 26.43C21.8759 26.43 17.8507 27.6001 14.4105 29.6361C12.9829 30.4552 12.1404 32.0232 12.1404 33.6614V38.1313H40.2235V33.6614C40.2235 32.0232 39.381 30.4786 37.9534 29.6361C34.5133 27.6001 30.488 26.43 26.182 26.43ZM47.7825 17.42L52.1119 15.618C49.2568 8.8079 43.8041 3.33171 36.9939 0.5L35.1919 4.82947C40.8553 7.21652 45.3954 11.7566 47.7825 17.42ZM17.172 4.82947L15.37 0.5C8.55985 3.35511 3.10706 8.8079 0.251953 15.618L4.58142 17.42C6.96848 11.7566 11.5086 7.21652 17.172 4.82947ZM4.58142 35.44L0.251953 37.242C3.10706 44.0521 8.55985 49.5283 15.37 52.36L17.172 48.0305C11.5086 45.6435 6.96848 41.1034 4.58142 35.44ZM35.1919 48.0305L36.9939 52.36C43.8041 49.5049 49.2802 44.0521 52.1119 37.242L47.7825 35.44C45.3954 41.1034 40.8553 45.6435 35.1919 48.0305Z" fill="white"/>
</svg>
