<svg width="67" height="67" viewBox="0 0 67 67" fill="none" xmlns="http://www.w3.org/2000/svg">
<path d="M61.416 11.166V9.77018C61.416 5.91768 58.2894 2.79102 54.4369 2.79102C50.5844 2.79102 47.4577 5.91768 47.4577 9.77018V11.166C45.9223 11.166 44.666 12.4223 44.666 13.9577V25.1243C44.666 26.6598 45.9223 27.916 47.4577 27.916H61.416C62.9514 27.916 64.2077 26.6598 64.2077 25.1243V13.9577C64.2077 12.4223 62.9514 11.166 61.416 11.166ZM59.1827 11.166H49.691V9.77018C49.691 7.14602 51.8127 5.02435 54.4369 5.02435C57.061 5.02435 59.1827 7.14602 59.1827 9.77018V11.166ZM52.8177 33.4993C52.9294 34.4206 53.041 35.3418 53.041 36.291C53.041 42.0977 50.8077 47.3739 47.1785 51.3381C46.4527 49.0768 44.3869 47.4577 41.8744 47.4577H39.0827V39.0827C39.0827 37.5473 37.8264 36.291 36.291 36.291H19.541V30.7077H25.1243C26.6598 30.7077 27.916 29.4514 27.916 27.916V22.3327H33.4993C36.5702 22.3327 39.0827 19.8202 39.0827 16.7493V9.65852C36.4306 8.82102 33.6389 8.37435 30.7077 8.37435C15.2977 8.37435 2.79102 20.881 2.79102 36.291C2.79102 51.701 15.2977 64.2077 30.7077 64.2077C46.1177 64.2077 58.6244 51.701 58.6244 36.291C58.6244 35.3418 58.5685 34.4206 58.4848 33.4993H52.8177ZM27.916 58.4289C16.8889 57.061 8.37435 47.681 8.37435 36.291C8.37435 34.5602 8.59768 32.9131 8.9606 31.2939L22.3327 44.666V47.4577C22.3327 50.5285 24.8452 53.041 27.916 53.041V58.4289Z" fill="white"/>
</svg>
