<svg width="43" height="43" viewBox="0 0 43 43" fill="none" xmlns="http://www.w3.org/2000/svg">
<path d="M26.9347 31.2041C24.5422 31.2041 22.6021 29.264 22.6021 26.8715C22.6021 24.479 24.5422 22.5389 26.9347 22.5389H37.7821C40.1746 22.5389 42.1147 24.479 42.1147 26.8715C42.1147 29.264 40.1746 31.2041 37.7821 31.2041H26.9347ZM26.9347 33.3835C29.3258 33.3835 31.2646 35.3222 31.2646 37.7134C31.2646 40.1045 29.3258 42.0432 26.9347 42.0432C24.545 42.0432 22.6062 40.1072 22.6048 37.7175V33.3835H26.9347ZM31.2701 15.9911C31.2701 18.3836 29.33 20.3237 26.9375 20.3237C24.545 20.3237 22.6048 18.3836 22.6048 15.9911V5.14512C22.6048 2.75262 24.545 0.8125 26.9375 0.8125C29.33 0.8125 31.2701 2.75262 31.2701 5.14512V15.9911ZM33.4495 15.9911C33.4509 13.6014 35.3882 11.664 37.778 11.664C40.1677 11.664 42.1065 13.6027 42.1065 15.9939C42.1065 18.3836 40.1705 20.321 37.7821 20.3237H33.4481L33.4495 15.9911ZM16.0571 11.6585C18.4441 11.6654 20.3773 13.6014 20.3773 15.9897C20.3773 18.3781 18.4441 20.3155 16.0571 20.321H5.21109C2.82409 20.3141 0.890844 18.3781 0.890844 15.9897C0.890844 13.6014 2.82409 11.664 5.21109 11.6585H16.0571ZM16.0571 9.475C13.6701 9.47225 11.7355 7.53625 11.7355 5.14787C11.7355 2.75812 13.6728 0.82075 16.0626 0.82075C18.4523 0.82075 20.387 2.75675 20.3897 5.14375V9.47362L16.0571 9.475ZM11.7245 26.8687C11.7313 24.4817 13.6673 22.5485 16.0557 22.5485C18.4441 22.5485 20.3815 24.4817 20.387 26.8687V37.7161C20.3801 40.1031 18.4441 42.0364 16.0557 42.0364C13.6673 42.0364 11.73 40.1031 11.7245 37.7161V26.8687ZM9.54097 26.8687C9.53959 29.2571 7.60222 31.1931 5.21384 31.1931C2.82547 31.1931 0.886719 29.2557 0.886719 26.866C0.886719 24.4762 2.82272 22.5402 5.21109 22.5389H9.54097V26.8687Z" fill="white"/>
</svg>
