<svg width="34" height="32" viewBox="0 0 34 32" fill="none" xmlns="http://www.w3.org/2000/svg">
<path d="M22.8509 26.4845L1.43832 11.714C-0.731585 10.2173 0.0060406 7.10088 2.71186 6.36802L25.4696 0.191307C25.9517 0.0173566 26.4683 -0.0391112 26.9766 0.0265948C27.4849 0.0923008 27.9702 0.278283 28.3922 0.569108C28.8141 0.859932 29.1607 1.24721 29.403 1.6988C29.6453 2.15038 29.7765 2.65326 29.7856 3.16568L28.4368 24.1116C28.2769 26.5978 25.0209 27.9812 22.8509 26.4845Z" fill="white"/>
<path d="M16.06 30.1296L3.44517 5.45981C3.1568 4.89545 3.02991 4.26239 3.07848 3.63048C3.12705 2.99857 3.34919 2.39234 3.7204 1.87867C4.09163 1.36499 4.5975 0.963808 5.18224 0.719365C5.76698 0.474922 6.40787 0.39672 7.03423 0.493387L30.4127 4.10153C30.9509 4.18462 31.4617 4.39427 31.9032 4.71325C32.3446 5.03224 32.704 5.45145 32.9519 5.93641C33.1997 6.42137 33.3289 6.95822 33.3288 7.50285C33.3287 8.04746 33.1993 8.58429 32.9514 9.06917L22.1818 30.1308C21.8926 30.6936 21.4539 31.1658 20.9138 31.4953C20.3737 31.825 19.7533 31.9992 19.1206 31.9991C18.4879 31.999 17.8674 31.8245 17.3275 31.4947C16.7875 31.1648 16.349 30.6925 16.06 30.1296Z" fill="white"/>
<path d="M23.75 8.72693L19.2612 8L13.75 9.57011L15.9498 14.0856L21.101 17.8153C21.2147 17.8966 21.3397 17.959 21.4716 18L23.4282 13.9852L23.75 8.72693Z" fill="white"/>
</svg>
