<svg width="24" height="24" viewBox="0 0 24 24" fill="none" xmlns="http://www.w3.org/2000/svg">
<path d="M15.9961 3H0.996094V16H15.9961V3Z" stroke="#FFEECD" stroke-width="1.47088" stroke-linecap="round" stroke-linejoin="round"/>
<path d="M16 8.00195H20L23 11.002V16.002H16V8.00195Z" stroke="#FFEECD" stroke-width="1.47088" stroke-linecap="round" stroke-linejoin="round"/>
<path d="M5.5 21C6.88071 21 8 19.8807 8 18.5C8 17.1193 6.88071 16 5.5 16C4.11929 16 3 17.1193 3 18.5C3 19.8807 4.11929 21 5.5 21Z" stroke="#FFEECD" stroke-width="1.47088" stroke-linecap="round" stroke-linejoin="round"/>
<path d="M18.5 21C19.8807 21 21 19.8807 21 18.5C21 17.1193 19.8807 16 18.5 16C17.1193 16 16 17.1193 16 18.5C16 19.8807 17.1193 21 18.5 21Z" stroke="#FFEECD" stroke-width="1.47088" stroke-linecap="round" stroke-linejoin="round"/>
</svg>
