<svg width="46" height="33" viewBox="0 0 46 33" fill="none" xmlns="http://www.w3.org/2000/svg">
<path d="M18.3979 23.1203V9.74477L30.1564 16.4333L18.3979 23.1203ZM44.5519 5.53427C44.0209 3.58277 42.5209 2.07377 40.6144 1.53977L40.5739 1.53077C35.7844 0.921766 30.2449 0.573766 24.6229 0.573766C24.0514 0.573766 23.4814 0.576765 22.9129 0.584265L22.9999 0.582766C22.5169 0.576766 21.9484 0.572266 21.3769 0.572266C15.7549 0.572266 10.2124 0.920265 4.77186 1.59377L5.42286 1.52777C3.47736 2.07227 1.97736 3.57977 1.45686 5.49227L1.44786 5.53127C0.847859 8.69477 0.505859 12.3353 0.505859 16.0553C0.505859 16.1873 0.505859 16.3193 0.507359 16.4498V16.4288C0.507359 16.5398 0.505859 16.6718 0.505859 16.8038C0.505859 20.5238 0.849359 24.1628 1.50486 27.6923L1.44786 27.3263C1.97886 29.2778 3.47886 30.7868 5.38536 31.3208L5.42586 31.3298C10.2154 31.9388 15.7549 32.2868 21.3769 32.2868C21.9469 32.2868 22.5169 32.2838 23.0869 32.2763L22.9999 32.2778C23.4829 32.2838 24.0529 32.2883 24.6229 32.2883C30.2464 32.2883 35.7874 31.9403 41.2279 31.2668L40.5769 31.3328C42.5239 30.7898 44.0239 29.2808 44.5459 27.3683L44.5549 27.3293C45.1534 24.1658 45.4954 20.5253 45.4954 16.8068C45.4954 16.6748 45.4954 16.5428 45.4939 16.4123V16.4318C45.4939 16.3208 45.4954 16.1888 45.4954 16.0568C45.4954 12.3368 45.1519 8.69777 44.4964 5.16827L44.5519 5.53427Z" fill="white"/>
</svg>
