<svg width="33" height="32" viewBox="0 0 33 32" fill="none" xmlns="http://www.w3.org/2000/svg">
<path fill-rule="evenodd" clip-rule="evenodd" d="M16.25 32C25.0866 32 32.25 24.8366 32.25 16C32.25 7.16345 25.0866 0 16.25 0C7.41343 0 0.25 7.16345 0.25 16C0.25 24.8366 7.41343 32 16.25 32ZM21.2415 7.45348C21.4844 6.59044 20.6469 6.08011 19.882 6.62504L9.2045 14.2317C8.37498 14.8226 8.50546 16 9.4005 16H12.2122V15.9782H17.692L13.227 17.5537L11.2586 24.5466C11.0156 25.4096 11.8531 25.9199 12.618 25.375L23.2955 17.7684C24.1251 17.1774 23.9945 16 23.0996 16H18.8357L21.2415 7.45348Z" fill="white"/>
</svg>
