<svg width="75" height="17" viewBox="0 0 75 17" fill="none" xmlns="http://www.w3.org/2000/svg">
<path d="M45.6018 11.8862C44.6958 12.8095 43.4318 13.3823 42.0369 13.3823C39.2793 13.3823 37.0427 11.1456 37.0427 8.38797C37.0427 5.63038 39.2793 3.39369 42.0369 3.39369C44.3304 3.39369 46.2634 4.93913 46.8485 7.04497L46.8559 7.07953C46.967 7.47206 47.0312 7.92138 47.0312 8.38797C47.0312 9.75072 46.4856 10.9851 45.6018 11.8862ZM36.1909 2.47038C34.5912 3.98866 33.5938 6.13153 33.5938 8.50894C33.5938 13.1033 37.3192 16.8286 41.9135 16.8286C46.5078 16.8286 50.2332 13.1033 50.2332 8.50894C50.2332 4.70706 47.683 1.50263 44.1996 0.507721L44.1403 0.492907C43.4738 0.300344 42.706 0.18925 41.9135 0.18925C39.6941 0.18925 37.6771 1.05825 36.186 2.47284L36.1909 2.47038ZM67.8527 0.0386569C65.8727 0.0411256 64.0952 0.907658 62.8757 2.28275L62.8707 2.29016C61.6462 0.902719 59.8613 0.03125 57.8764 0.03125C56.4865 0.03125 55.1954 0.458345 54.1264 1.18663L54.1486 1.17181C53.3685 0.485502 52.3464 0.0584063 51.2256 0.03125H51.2207V16.6756L52.0527 16.6361C53.3957 16.6015 54.4745 15.5227 54.5091 14.1846L54.5486 13.3502V7.52144L54.5905 6.68947C54.5905 6.687 54.5905 6.68453 54.5905 6.68206C54.5905 6.07722 54.7411 5.50447 55.0078 5.00578L54.9979 5.02553C55.5854 4.02569 56.6544 3.36653 57.8764 3.36653C59.0985 3.36653 60.1674 4.02569 60.7451 5.00578L60.7525 5.0206C61.0068 5.50447 61.1574 6.07722 61.1599 6.687L61.2018 7.52391V13.3526L61.2413 14.1821C61.2957 15.5153 62.3622 16.5818 63.6879 16.6385H63.6928L64.5248 16.678V7.52391L64.5618 6.69194C64.5618 6.68947 64.5618 6.687 64.5618 6.68453C64.5618 6.07475 64.7149 5.49953 64.984 4.99838L64.9741 5.01813C65.5617 4.02322 66.6282 3.36653 67.8502 3.36653C69.0747 3.36653 70.1437 4.02816 70.7238 5.01072L70.7312 5.02553C70.983 5.50694 71.1312 6.07969 71.1312 6.687C71.1312 6.68947 71.1312 6.68947 71.1312 6.69194L71.1781 7.52391V13.3526L71.2176 14.1821C71.2669 15.5177 72.3384 16.5892 73.669 16.6385H73.674L74.5059 16.678V6.69194C74.5035 3.01844 71.5237 0.0411266 67.8477 0.0411266C67.8453 0.0411266 67.8428 0.0411266 67.8403 0.0411266L67.8527 0.0386569ZM28.1305 11.8862C27.217 12.8564 25.9234 13.4613 24.4891 13.4613C21.7315 13.4613 19.4948 11.2246 19.4948 8.46697C19.4948 5.70937 21.7315 3.47269 24.4891 3.47269C26.7702 3.47269 28.6933 5.00084 29.2908 7.08941L29.3007 7.12397C29.4167 7.52638 29.4858 7.9905 29.4858 8.46697C29.4858 9.79022 28.9698 10.9925 28.1305 11.8862ZM24.61 0.0361895H24.5977C20.0058 0.0386582 16.2854 3.76153 16.2854 8.35094C16.2854 12.9403 20.0083 16.6657 24.6002 16.6657C29.192 16.6657 32.9149 12.9428 32.9149 8.35094C32.9149 3.75906 29.1945 0.0386582 24.6051 0.0361895H24.61ZM14.6215 13.3872L13.7895 13.3502H6.29684L16.2805 3.36406L16.241 2.5321C16.2089 1.1891 15.1276 0.107783 13.787 0.075689L12.9526 0.0361895H0.480469L0.524906 0.868158C0.589094 2.19635 1.64819 3.25544 2.96897 3.32456H2.97391L3.80588 3.36406H11.3035L1.3075 13.3502L1.34947 14.1797C1.39638 15.5153 2.46781 16.5867 3.79847 16.6361H3.80341L4.63538 16.6756H17.1174L17.0729 15.8436C17.0137 14.5129 15.9497 13.4514 14.6264 13.3921H14.6215V13.3872Z" fill="white"/>
</svg>
